<?xml version="1.0" encoding="utf-8" standalone="no"?>
<!DOCTYPE svg PUBLIC "-//W3C//DTD SVG 1.1//EN"
  "http://www.w3.org/Graphics/SVG/1.1/DTD/svg11.dtd">
<svg xmlns:xlink="http://www.w3.org/1999/xlink" width="494.624609pt" height="263.577617pt" viewBox="0 0 494.624609 263.577617" xmlns="http://www.w3.org/2000/svg" version="1.1">
 <metadata>
  <rdf:RDF xmlns:dc="http://purl.org/dc/elements/1.1/" xmlns:cc="http://creativecommons.org/ns#" xmlns:rdf="http://www.w3.org/1999/02/22-rdf-syntax-ns#">
   <cc:Work>
    <dc:type rdf:resource="http://purl.org/dc/dcmitype/StillImage"/>
    <dc:date>2022-09-05T10:59:37.865619</dc:date>
    <dc:format>image/svg+xml</dc:format>
    <dc:creator>
     <cc:Agent>
      <dc:title>Matplotlib v3.5.1, https://matplotlib.org/</dc:title>
     </cc:Agent>
    </dc:creator>
   </cc:Work>
  </rdf:RDF>
 </metadata>
 <defs>
  <style type="text/css">*{stroke-linejoin: round; stroke-linecap: butt}</style>
 </defs>
 <g id="figure_1">
  <g id="patch_1">
   <path d="M 0 263.577617 
L 494.624609 263.577617 
L 494.624609 0 
L 0 0 
L 0 263.577617 
z
" style="fill: none"/>
  </g>
  <g id="axes_1">
   <g id="patch_2">
    <path d="M 41.024609 230.908711 
L 172.318727 230.908711 
L 172.318727 13.468711 
L 41.024609 13.468711 
L 41.024609 230.908711 
z
" style="fill: none"/>
   </g>
   <g id="matplotlib.axis_1">
    <g id="xtick_1">
     <g id="line2d_1">
      <defs>
       <path id="m0ab9358d40" d="M 0 0 
L 0 6 
" style="stroke: #262626; stroke-width: 1.25"/>
      </defs>
      <g>
       <use xlink:href="#m0ab9358d40" x="58.182363" y="230.908711" style="fill: #262626; stroke: #262626; stroke-width: 1.25"/>
      </g>
     </g>
     <g id="text_1">
      <text style="fill: #262626; font: 16.5px 'sans-serif'; text-anchor: middle" x="58.182363" y="252.946133" transform="rotate(-0, 58.182363, 252.946133)">0</text>
     </g>
    </g>
    <g id="xtick_2">
     <g id="line2d_2">
      <g>
       <use xlink:href="#m0ab9358d40" x="170.080759" y="230.908711" style="fill: #262626; stroke: #262626; stroke-width: 1.25"/>
      </g>
     </g>
     <g id="text_2">
      <text style="fill: #262626; font: 16.5px 'sans-serif'; text-anchor: middle" x="170.080759" y="252.946133" transform="rotate(-0, 170.080759, 252.946133)">10</text>
     </g>
    </g>
   </g>
   <g id="matplotlib.axis_2">
    <g id="ytick_1">
     <g id="line2d_3">
      <defs>
       <path id="m0b666bbd30" d="M 0 0 
L -6 0 
" style="stroke: #262626; stroke-width: 1.25"/>
      </defs>
      <g>
       <use xlink:href="#m0b666bbd30" x="41.024609" y="230.908711" style="fill: #262626; stroke: #262626; stroke-width: 1.25"/>
      </g>
     </g>
     <g id="text_3">
      <text style="fill: #262626; font: 16.5px 'sans-serif'; text-anchor: end" x="31.524609" y="237.177422" transform="rotate(-0, 31.524609, 237.177422)">−4</text>
     </g>
    </g>
    <g id="ytick_2">
     <g id="line2d_4">
      <g>
       <use xlink:href="#m0b666bbd30" x="41.024609" y="194.668711" style="fill: #262626; stroke: #262626; stroke-width: 1.25"/>
      </g>
     </g>
     <g id="text_4">
      <text style="fill: #262626; font: 16.5px 'sans-serif'; text-anchor: end" x="31.524609" y="200.937422" transform="rotate(-0, 31.524609, 200.937422)">−2</text>
     </g>
    </g>
    <g id="ytick_3">
     <g id="line2d_5">
      <g>
       <use xlink:href="#m0b666bbd30" x="41.024609" y="158.428711" style="fill: #262626; stroke: #262626; stroke-width: 1.25"/>
      </g>
     </g>
     <g id="text_5">
      <text style="fill: #262626; font: 16.5px 'sans-serif'; text-anchor: end" x="31.524609" y="164.697422" transform="rotate(-0, 31.524609, 164.697422)">0</text>
     </g>
    </g>
    <g id="ytick_4">
     <g id="line2d_6">
      <g>
       <use xlink:href="#m0b666bbd30" x="41.024609" y="122.188711" style="fill: #262626; stroke: #262626; stroke-width: 1.25"/>
      </g>
     </g>
     <g id="text_6">
      <text style="fill: #262626; font: 16.5px 'sans-serif'; text-anchor: end" x="31.524609" y="128.457422" transform="rotate(-0, 31.524609, 128.457422)">2</text>
     </g>
    </g>
    <g id="ytick_5">
     <g id="line2d_7">
      <g>
       <use xlink:href="#m0b666bbd30" x="41.024609" y="85.948711" style="fill: #262626; stroke: #262626; stroke-width: 1.25"/>
      </g>
     </g>
     <g id="text_7">
      <text style="fill: #262626; font: 16.5px 'sans-serif'; text-anchor: end" x="31.524609" y="92.217422" transform="rotate(-0, 31.524609, 92.217422)">4</text>
     </g>
    </g>
    <g id="ytick_6">
     <g id="line2d_8">
      <g>
       <use xlink:href="#m0b666bbd30" x="41.024609" y="49.708711" style="fill: #262626; stroke: #262626; stroke-width: 1.25"/>
      </g>
     </g>
     <g id="text_8">
      <text style="fill: #262626; font: 16.5px 'sans-serif'; text-anchor: end" x="31.524609" y="55.977422" transform="rotate(-0, 31.524609, 55.977422)">6</text>
     </g>
    </g>
    <g id="ytick_7">
     <g id="line2d_9">
      <g>
       <use xlink:href="#m0b666bbd30" x="41.024609" y="13.468711" style="fill: #262626; stroke: #262626; stroke-width: 1.25"/>
      </g>
     </g>
     <g id="text_9">
      <text style="fill: #262626; font: 16.5px 'sans-serif'; text-anchor: end" x="31.524609" y="19.737422" transform="rotate(-0, 31.524609, 19.737422)">8</text>
     </g>
    </g>
   </g>
   <g id="line2d_10">
    <path d="M 46.992524 158.16024 
L 50.72247 159.645264 
L 54.452417 157.473164 
L 58.182363 157.290681 
L 61.91231 158.365533 
L 65.642256 159.218917 
L 69.372203 159.053024 
L 73.102149 156.263247 
L 76.832096 153.434209 
L 80.562043 151.403672 
L 84.291989 148.35123 
L 88.021936 149.280234 
L 91.751882 149.616445 
L 95.481829 149.567783 
L 99.211775 148.395469 
L 102.941722 143.78584 
L 106.671668 145.325332 
L 110.401615 148.970566 
L 114.131561 147.147949 
L 117.861508 146.758652 
L 121.591454 147.015234 
L 125.321401 147.201035 
L 129.051347 147.165645 
L 132.781294 149.18291 
L 136.51124 151.841631 
L 140.241187 149.837637 
L 143.971133 152.394609 
L 147.70108 150.306563 
L 151.431026 150.22251 
L 155.160973 149.50585 
L 158.89092 147.714199 
L 162.620866 148.271602 
L 166.350813 146.378203 
" clip-path="url(#p562106b208)" style="fill: none; stroke: #1a1a1a; stroke-opacity: 0.4; stroke-width: 1.5; stroke-linecap: round"/>
   </g>
   <g id="line2d_11">
    <path d="M 46.992524 158.349359 
L 50.72247 158.722066 
L 54.452417 158.188304 
L 58.182363 158.267656 
L 61.91231 158.695523 
L 65.642256 157.781726 
L 69.372203 154.783477 
L 73.102149 151.841631 
L 76.832096 151.722187 
L 80.562043 148.811309 
L 84.291989 143.37 
L 88.021936 140.131758 
L 91.751882 134.893945 
L 95.481829 128.735977 
L 99.211775 121.303945 
L 102.941722 113.942695 
L 106.671668 106.050586 
L 110.401615 101.945273 
L 114.131561 94.053164 
L 117.861508 87.57668 
L 121.591454 82.48043 
L 125.321401 75.473086 
L 129.051347 69.598242 
L 132.781294 65.563711 
L 136.51124 60.96293 
L 140.241187 57.919336 
L 143.971133 56.574492 
L 147.70108 54.451055 
L 151.431026 53.318555 
L 155.160973 52.610742 
L 158.89092 50.911992 
L 162.620866 48.788555 
L 166.350813 47.585273 
" clip-path="url(#p562106b208)" style="fill: none; stroke: #c44e52; stroke-opacity: 0.4; stroke-width: 1.5; stroke-linecap: round"/>
   </g>
   <g id="line2d_12">
    <path d="M 46.992524 158.106324 
L 50.72247 158.370372 
L 54.452417 158.843445 
L 58.182363 159.009338 
L 61.91231 158.600826 
L 65.642256 156.275413 
L 69.372203 157.86965 
L 73.102149 155.270098 
L 76.832096 154.378696 
L 80.562043 159.030905 
L 84.291989 155.228071 
L 88.021936 153.288223 
L 91.751882 157.15686 
L 95.481829 154.575557 
L 99.211775 156.351724 
L 102.941722 155.11084 
L 106.671668 156.671345 
L 110.401615 157.49473 
L 114.131561 157.089397 
L 117.861508 159.433473 
L 121.591454 155.453687 
L 125.321401 156.892537 
L 129.051347 157.924948 
L 132.781294 157.921906 
L 136.51124 159.147583 
L 140.241187 159.117169 
L 143.971133 159.049153 
L 147.70108 157.512979 
L 151.431026 157.99877 
L 155.160973 158.840403 
L 158.89092 160.093176 
L 162.620866 157.236489 
L 166.350813 160.861816 
" clip-path="url(#p562106b208)" style="fill: none; stroke: #1a1a1a; stroke-opacity: 0.7; stroke-width: 1.5; stroke-linecap: round"/>
   </g>
   <g id="line2d_13">
    <path d="M 46.992524 157.362568 
L 50.72247 158.679487 
L 54.452417 159.246566 
L 58.182363 158.474193 
L 61.91231 157.785044 
L 65.642256 154.546802 
L 69.372203 152.633496 
L 73.102149 149.262539 
L 76.832096 146.165859 
L 80.562043 144.705996 
L 84.291989 144.900645 
L 88.021936 142.794902 
L 91.751882 139.636289 
L 95.481829 137.601328 
L 99.211775 139.600898 
L 102.941722 132.805898 
L 106.671668 135.123984 
L 110.401615 132.858984 
L 114.131561 132.558164 
L 117.861508 129.585352 
L 121.591454 128.682891 
L 125.321401 125.356172 
L 129.051347 123.675117 
L 132.781294 121.445508 
L 136.51124 118.826602 
L 140.241187 116.278477 
L 143.971133 113.376445 
L 147.70108 114.438164 
L 151.431026 109.12957 
L 155.160973 111.92543 
L 158.89092 110.014336 
L 162.620866 108.032461 
L 166.350813 108.775664 
" clip-path="url(#p562106b208)" style="fill: none; stroke: #c44e52; stroke-opacity: 0.7; stroke-width: 1.5; stroke-linecap: round"/>
   </g>
   <g id="line2d_14">
    <path d="M 46.992524 158.881047 
L 50.72247 158.575112 
L 54.452417 157.820988 
L 58.182363 157.764031 
L 61.91231 157.32386 
L 65.642256 157.195569 
L 69.372203 156.266565 
L 73.102149 156.222327 
L 76.832096 155.56207 
L 80.562043 155.42272 
L 84.291989 155.81644 
L 88.021936 155.020151 
L 91.751882 154.79896 
L 95.481829 155.210376 
L 99.211775 154.478232 
L 102.941722 154.515835 
L 106.671668 154.263677 
L 110.401615 153.97834 
L 114.131561 153.792539 
L 117.861508 153.726182 
L 121.591454 152.73082 
L 125.321401 152.960859 
L 129.051347 152.814873 
L 132.781294 153.252832 
L 136.51124 152.332676 
L 140.241187 152.536172 
L 143.971133 152.275166 
L 147.70108 151.899141 
L 151.431026 151.691221 
L 155.160973 151.487725 
L 158.89092 151.629287 
L 162.620866 151.315195 
L 166.350813 151.054189 
" clip-path="url(#p562106b208)" style="fill: none; stroke: #1a1a1a; stroke-width: 1.5; stroke-linecap: round"/>
   </g>
   <g id="line2d_15">
    <path d="M 46.992524 158.846763 
L 50.72247 158.391661 
L 54.452417 158.056003 
L 58.182363 157.594819 
L 61.91231 157.105986 
L 65.642256 156.593928 
L 69.372203 155.480229 
L 73.102149 154.195107 
L 76.832096 153.4696 
L 80.562043 151.97877 
L 84.291989 150.452549 
L 88.021936 148.802461 
L 91.751882 146.413594 
L 95.481829 143.874316 
L 99.211775 140.344102 
L 102.941722 136.468828 
L 106.671668 131.673398 
L 110.401615 125.639297 
L 114.131561 119.923711 
L 117.861508 113.588789 
L 121.591454 107.076914 
L 125.321401 100.352695 
L 129.051347 94.513242 
L 132.781294 88.213711 
L 136.51124 82.551211 
L 140.241187 78.021211 
L 143.971133 73.137305 
L 147.70108 69.173555 
L 151.431026 66.05918 
L 155.160973 63.298711 
L 158.89092 61.104492 
L 162.620866 59.405742 
L 166.350813 58.202461 
" clip-path="url(#p562106b208)" style="fill: none; stroke: #c44e52; stroke-width: 1.5; stroke-linecap: round"/>
   </g>
   <g id="line2d_16">
    <path d="M 58.182363 230.908711 
L 58.182363 13.468711 
" clip-path="url(#p562106b208)" style="fill: none; stroke-dasharray: 5.55,2.4; stroke-dashoffset: 0; stroke: #1a1a1a; stroke-width: 1.5"/>
   </g>
   <g id="patch_3">
    <path d="M 41.024609 230.908711 
L 41.024609 13.468711 
" style="fill: none; stroke: #262626; stroke-width: 1.25; stroke-linejoin: miter; stroke-linecap: square"/>
   </g>
   <g id="patch_4">
    <path d="M 172.318727 230.908711 
L 172.318727 13.468711 
" style="fill: none; stroke: #262626; stroke-width: 1.25; stroke-linejoin: miter; stroke-linecap: square"/>
   </g>
   <g id="patch_5">
    <path d="M 41.024609 230.908711 
L 172.318727 230.908711 
" style="fill: none; stroke: #262626; stroke-width: 1.25; stroke-linejoin: miter; stroke-linecap: square"/>
   </g>
   <g id="patch_6">
    <path d="M 41.024609 13.468711 
L 172.318727 13.468711 
" style="fill: none; stroke: #262626; stroke-width: 1.25; stroke-linejoin: miter; stroke-linecap: square"/>
   </g>
  </g>
  <g id="axes_2">
   <g id="patch_7">
    <path d="M 198.577551 230.908711 
L 329.871668 230.908711 
L 329.871668 13.468711 
L 198.577551 13.468711 
L 198.577551 230.908711 
z
" style="fill: none"/>
   </g>
   <g id="matplotlib.axis_3">
    <g id="xtick_3">
     <g id="line2d_17">
      <g>
       <use xlink:href="#m0ab9358d40" x="215.735305" y="230.908711" style="fill: #262626; stroke: #262626; stroke-width: 1.25"/>
      </g>
     </g>
     <g id="text_10">
      <text style="fill: #262626; font: 16.5px 'sans-serif'; text-anchor: middle" x="215.735305" y="252.946133" transform="rotate(-0, 215.735305, 252.946133)">0</text>
     </g>
    </g>
    <g id="xtick_4">
     <g id="line2d_18">
      <g>
       <use xlink:href="#m0ab9358d40" x="327.6337" y="230.908711" style="fill: #262626; stroke: #262626; stroke-width: 1.25"/>
      </g>
     </g>
     <g id="text_11">
      <text style="fill: #262626; font: 16.5px 'sans-serif'; text-anchor: middle" x="327.6337" y="252.946133" transform="rotate(-0, 327.6337, 252.946133)">10</text>
     </g>
    </g>
   </g>
   <g id="matplotlib.axis_4">
    <g id="ytick_8">
     <g id="line2d_19">
      <g>
       <use xlink:href="#m0b666bbd30" x="198.577551" y="230.908711" style="fill: #262626; stroke: #262626; stroke-width: 1.25"/>
      </g>
     </g>
    </g>
    <g id="ytick_9">
     <g id="line2d_20">
      <g>
       <use xlink:href="#m0b666bbd30" x="198.577551" y="194.668711" style="fill: #262626; stroke: #262626; stroke-width: 1.25"/>
      </g>
     </g>
    </g>
    <g id="ytick_10">
     <g id="line2d_21">
      <g>
       <use xlink:href="#m0b666bbd30" x="198.577551" y="158.428711" style="fill: #262626; stroke: #262626; stroke-width: 1.25"/>
      </g>
     </g>
    </g>
    <g id="ytick_11">
     <g id="line2d_22">
      <g>
       <use xlink:href="#m0b666bbd30" x="198.577551" y="122.188711" style="fill: #262626; stroke: #262626; stroke-width: 1.25"/>
      </g>
     </g>
    </g>
    <g id="ytick_12">
     <g id="line2d_23">
      <g>
       <use xlink:href="#m0b666bbd30" x="198.577551" y="85.948711" style="fill: #262626; stroke: #262626; stroke-width: 1.25"/>
      </g>
     </g>
    </g>
    <g id="ytick_13">
     <g id="line2d_24">
      <g>
       <use xlink:href="#m0b666bbd30" x="198.577551" y="49.708711" style="fill: #262626; stroke: #262626; stroke-width: 1.25"/>
      </g>
     </g>
    </g>
    <g id="ytick_14">
     <g id="line2d_25">
      <g>
       <use xlink:href="#m0b666bbd30" x="198.577551" y="13.468711" style="fill: #262626; stroke: #262626; stroke-width: 1.25"/>
      </g>
     </g>
    </g>
   </g>
   <g id="line2d_26">
    <path d="M 204.545465 149.218301 
L 208.275412 150.855117 
L 212.005358 149.620869 
L 215.735305 151.700068 
L 219.465251 147.926543 
L 223.195198 150.757793 
L 226.925144 147.63457 
L 230.655091 146.431289 
L 234.385037 147.776133 
L 238.114984 143.334609 
L 241.84493 144.148594 
L 245.574877 147.422227 
L 249.304823 146.794043 
L 253.03477 145.820801 
L 256.764716 142.65334 
L 260.494663 144.723691 
L 264.224609 145.838496 
L 267.954556 146.864824 
L 271.684502 147.855762 
L 275.414449 147.307207 
L 279.144395 149.727041 
L 282.874342 147.03293 
L 286.604289 149.837637 
L 290.334235 152.836992 
L 294.064182 148.413164 
L 297.794128 151.2975 
L 301.524075 150.306563 
L 305.254021 152.115908 
L 308.983968 150.0721 
L 312.713914 148.475098 
L 316.443861 150.501211 
L 320.173807 151.231143 
L 323.903754 154.305703 
" clip-path="url(#p3b4046151f)" style="fill: none; stroke: #1a1a1a; stroke-opacity: 0.4; stroke-width: 1.5; stroke-linecap: round"/>
   </g>
   <g id="line2d_27">
    <path d="M 204.545465 108.067852 
L 208.275412 97.946133 
L 212.005358 88.921523 
L 215.735305 80.569336 
L 219.465251 70.093711 
L 223.195198 65.705273 
L 226.925144 59.476523 
L 230.655091 52.46918 
L 234.385037 43.40918 
L 238.114984 37.675898 
L 241.84493 33.570586 
L 245.574877 29.606836 
L 249.304823 27.271055 
L 253.03477 26.917148 
L 256.764716 28.261992 
L 260.494663 27.341836 
L 264.224609 27.837305 
L 267.954556 30.38543 
L 271.684502 32.438086 
L 275.414449 36.968086 
L 279.144395 40.01168 
L 282.874342 45.037148 
L 286.604289 48.363867 
L 290.334235 52.115273 
L 294.064182 55.441992 
L 297.794128 60.679805 
L 301.524075 65.209805 
L 305.254021 69.315117 
L 308.983968 74.128242 
L 312.713914 80.003086 
L 316.443861 81.34793 
L 320.173807 86.550352 
L 323.903754 90.584883 
" clip-path="url(#p3b4046151f)" style="fill: none; stroke: #c44e52; stroke-opacity: 0.4; stroke-width: 1.5; stroke-linecap: round"/>
   </g>
   <g id="line2d_28">
    <path d="M 204.545465 161.574053 
L 208.275412 164.568984 
L 212.005358 167.00209 
L 215.735305 162.326104 
L 219.465251 163.458604 
L 223.195198 164.94501 
L 226.925144 164.573408 
L 230.655091 164.975977 
L 234.385037 166.58625 
L 238.114984 164.82999 
L 241.84493 165.838623 
L 245.574877 166.095205 
L 249.304823 165.984609 
L 253.03477 168.267305 
L 256.764716 167.325029 
L 260.494663 167.878008 
L 264.224609 168.302695 
L 267.954556 168.798164 
L 271.684502 169.435195 
L 275.414449 169.311328 
L 279.144395 169.222852 
L 282.874342 170.841973 
L 286.604289 170.28457 
L 290.334235 169.222852 
L 294.064182 169.736016 
L 297.794128 170.346504 
L 301.524075 170.576543 
L 305.254021 169.160918 
L 308.983968 170.231484 
L 312.713914 169.072441 
L 316.443861 170.992383 
L 320.173807 170.151855 
L 323.903754 170.788887 
" clip-path="url(#p3b4046151f)" style="fill: none; stroke: #1a1a1a; stroke-opacity: 0.7; stroke-width: 1.5; stroke-linecap: round"/>
   </g>
   <g id="line2d_29">
    <path d="M 204.545465 112.52707 
L 208.275412 115.393711 
L 212.005358 112.668633 
L 215.735305 101.308242 
L 219.465251 112.49168 
L 223.195198 114.508945 
L 226.925144 117.127852 
L 230.655091 116.667773 
L 234.385037 116.278477 
L 238.114984 117.410977 
L 241.84493 115.535273 
L 245.574877 116.950898 
L 249.304823 119.180508 
L 253.03477 119.711367 
L 256.764716 122.082539 
L 260.494663 123.533555 
L 264.224609 124.082109 
L 267.954556 126.524062 
L 271.684502 128.541328 
L 275.414449 130.9125 
L 279.144395 132.929766 
L 282.874342 134.504648 
L 286.604289 137.831367 
L 290.334235 137.353594 
L 294.064182 138.680742 
L 297.794128 140.68916 
L 301.524075 141.963223 
L 305.254021 142.476387 
L 308.983968 143.042637 
L 312.713914 144.520195 
L 316.443861 146.342813 
L 320.173807 146.953301 
L 323.903754 146.926758 
" clip-path="url(#p3b4046151f)" style="fill: none; stroke: #c44e52; stroke-opacity: 0.7; stroke-width: 1.5; stroke-linecap: round"/>
   </g>
   <g id="line2d_30">
    <path d="M 204.545465 151.961074 
L 208.275412 151.593896 
L 212.005358 151.248838 
L 215.735305 150.99668 
L 219.465251 151.058613 
L 223.195198 151.217871 
L 226.925144 150.395039 
L 230.655091 150.567568 
L 234.385037 150.191543 
L 238.114984 149.912842 
L 241.84493 150.452549 
L 245.574877 149.903994 
L 249.304823 150.452549 
L 253.03477 150.63835 
L 256.764716 150.687012 
L 260.494663 150.948018 
L 264.224609 151.102852 
L 267.954556 151.275381 
L 271.684502 151.301924 
L 275.414449 151.372705 
L 279.144395 151.324043 
L 282.874342 151.753154 
L 286.604289 152.133604 
L 290.334235 151.872598 
L 294.064182 151.872598 
L 297.794128 152.385762 
L 301.524075 152.987402 
L 305.254021 152.699854 
L 308.983968 152.863535 
L 312.713914 152.832568 
L 316.443861 153.177627 
L 320.173807 153.243984 
L 323.903754 153.474023 
" clip-path="url(#p3b4046151f)" style="fill: none; stroke: #1a1a1a; stroke-width: 1.5; stroke-linecap: round"/>
   </g>
   <g id="line2d_31">
    <path d="M 204.545465 88.355273 
L 208.275412 83.825273 
L 212.005358 79.08293 
L 215.735305 75.68543 
L 219.465251 72.924961 
L 223.195198 69.527461 
L 226.925144 66.413086 
L 230.655091 64.36043 
L 234.385037 63.086367 
L 238.114984 61.670742 
L 241.84493 61.52918 
L 245.574877 61.033711 
L 249.304823 61.741523 
L 253.03477 62.944805 
L 256.764716 64.006523 
L 260.494663 65.280586 
L 264.224609 67.19168 
L 267.954556 69.244336 
L 271.684502 71.15543 
L 275.414449 73.561992 
L 279.144395 75.614648 
L 282.874342 78.021211 
L 286.604289 80.640117 
L 290.334235 82.975898 
L 294.064182 84.886992 
L 297.794128 87.364336 
L 301.524075 89.487773 
L 305.254021 91.505039 
L 308.983968 93.628477 
L 312.713914 95.787305 
L 316.443861 97.556836 
L 320.173807 99.644883 
L 323.903754 101.131289 
" clip-path="url(#p3b4046151f)" style="fill: none; stroke: #c44e52; stroke-width: 1.5; stroke-linecap: round"/>
   </g>
   <g id="line2d_32">
    <path d="M 215.735305 230.908711 
L 215.735305 13.468711 
" clip-path="url(#p3b4046151f)" style="fill: none; stroke-dasharray: 5.55,2.4; stroke-dashoffset: 0; stroke: #1a1a1a; stroke-width: 1.5"/>
   </g>
   <g id="patch_8">
    <path d="M 198.577551 230.908711 
L 198.577551 13.468711 
" style="fill: none; stroke: #262626; stroke-width: 1.25; stroke-linejoin: miter; stroke-linecap: square"/>
   </g>
   <g id="patch_9">
    <path d="M 329.871668 230.908711 
L 329.871668 13.468711 
" style="fill: none; stroke: #262626; stroke-width: 1.25; stroke-linejoin: miter; stroke-linecap: square"/>
   </g>
   <g id="patch_10">
    <path d="M 198.577551 230.908711 
L 329.871668 230.908711 
" style="fill: none; stroke: #262626; stroke-width: 1.25; stroke-linejoin: miter; stroke-linecap: square"/>
   </g>
   <g id="patch_11">
    <path d="M 198.577551 13.468711 
L 329.871668 13.468711 
" style="fill: none; stroke: #262626; stroke-width: 1.25; stroke-linejoin: miter; stroke-linecap: square"/>
   </g>
  </g>
  <g id="axes_3">
   <g id="patch_12">
    <path d="M 356.130492 230.908711 
L 487.424609 230.908711 
L 487.424609 13.468711 
L 356.130492 13.468711 
L 356.130492 230.908711 
z
" style="fill: none"/>
   </g>
   <g id="matplotlib.axis_5">
    <g id="xtick_5">
     <g id="line2d_33">
      <g>
       <use xlink:href="#m0ab9358d40" x="363.906865" y="230.908711" style="fill: #262626; stroke: #262626; stroke-width: 1.25"/>
      </g>
     </g>
     <g id="text_12">
      <text style="fill: #262626; font: 16.5px 'sans-serif'; text-anchor: middle" x="363.906865" y="252.946133" transform="rotate(-0, 363.906865, 252.946133)">0</text>
     </g>
    </g>
    <g id="xtick_6">
     <g id="line2d_34">
      <g>
       <use xlink:href="#m0ab9358d40" x="454.329811" y="230.908711" style="fill: #262626; stroke: #262626; stroke-width: 1.25"/>
      </g>
     </g>
     <g id="text_13">
      <text style="fill: #262626; font: 16.5px 'sans-serif'; text-anchor: middle" x="454.329811" y="252.946133" transform="rotate(-0, 454.329811, 252.946133)">50</text>
     </g>
    </g>
   </g>
   <g id="matplotlib.axis_6">
    <g id="ytick_15">
     <g id="line2d_35">
      <g>
       <use xlink:href="#m0b666bbd30" x="356.130492" y="230.908711" style="fill: #262626; stroke: #262626; stroke-width: 1.25"/>
      </g>
     </g>
    </g>
    <g id="ytick_16">
     <g id="line2d_36">
      <g>
       <use xlink:href="#m0b666bbd30" x="356.130492" y="194.668711" style="fill: #262626; stroke: #262626; stroke-width: 1.25"/>
      </g>
     </g>
    </g>
    <g id="ytick_17">
     <g id="line2d_37">
      <g>
       <use xlink:href="#m0b666bbd30" x="356.130492" y="158.428711" style="fill: #262626; stroke: #262626; stroke-width: 1.25"/>
      </g>
     </g>
    </g>
    <g id="ytick_18">
     <g id="line2d_38">
      <g>
       <use xlink:href="#m0b666bbd30" x="356.130492" y="122.188711" style="fill: #262626; stroke: #262626; stroke-width: 1.25"/>
      </g>
     </g>
    </g>
    <g id="ytick_19">
     <g id="line2d_39">
      <g>
       <use xlink:href="#m0b666bbd30" x="356.130492" y="85.948711" style="fill: #262626; stroke: #262626; stroke-width: 1.25"/>
      </g>
     </g>
    </g>
    <g id="ytick_20">
     <g id="line2d_40">
      <g>
       <use xlink:href="#m0b666bbd30" x="356.130492" y="49.708711" style="fill: #262626; stroke: #262626; stroke-width: 1.25"/>
      </g>
     </g>
    </g>
    <g id="ytick_21">
     <g id="line2d_41">
      <g>
       <use xlink:href="#m0b666bbd30" x="356.130492" y="13.468711" style="fill: #262626; stroke: #262626; stroke-width: 1.25"/>
      </g>
     </g>
    </g>
   </g>
   <g id="line2d_42">
    <path d="M 362.098406 151.216291 
L 362.701226 149.296666 
L 364.509685 156.414289 
L 365.112504 154.147077 
L 365.715324 157.796735 
L 366.318144 160.395735 
L 366.920963 159.439872 
L 367.523783 159.795358 
L 368.126603 159.929653 
L 368.729422 159.708461 
L 369.935061 156.437988 
L 370.537881 156.809274 
L 371.140701 157.449149 
L 371.74352 155.750715 
L 372.34634 158.96589 
L 372.94916 160.948713 
L 373.551979 159.716361 
L 374.154799 159.589966 
L 374.757619 160.695923 
L 375.360438 159.47937 
L 375.963258 159.060686 
L 376.566078 159.676862 
L 377.168897 157.385951 
L 377.771717 154.431466 
L 378.374536 155.853411 
L 378.977356 154.08388 
L 379.580176 154.178676 
L 380.785815 156.722377 
L 381.388635 160.782819 
L 381.991454 162.125767 
L 382.594274 159.811157 
L 383.197094 160.277239 
L 383.799913 162.497053 
L 384.402733 163.761004 
L 385.005552 163.010533 
L 385.608372 162.943386 
L 386.211192 164.183637 
L 386.814011 162.915737 
L 387.416831 163.259373 
L 388.019651 164.148089 
L 388.62247 163.287022 
L 389.22529 161.620187 
L 389.82811 163.192226 
L 390.430929 157.923131 
L 391.636569 165.009155 
L 392.239388 165.313293 
L 392.842208 166.078247 
L 393.445027 167.608154 
L 394.047847 166.681915 
L 394.650667 163.17511 
L 395.253486 162.967743 
L 395.856306 163.778778 
L 397.061945 166.04599 
L 397.664765 164.327148 
L 398.267585 161.672852 
L 398.870404 162.82489 
L 399.473224 164.437744 
L 400.076044 168.179565 
L 400.678863 165.064453 
L 401.281683 167.359314 
L 401.884502 167.110474 
L 402.487322 164.603638 
L 403.090142 165.608215 
L 403.692961 164.640503 
L 404.295781 164.866302 
L 404.898601 166.391602 
L 405.50142 165.737244 
L 406.10424 168.907654 
L 407.912699 172.944397 
L 408.515518 175.902832 
L 409.118338 171.469788 
L 409.721158 171.091919 
L 410.323977 173.506592 
L 410.926797 172.497406 
L 411.529617 172.764679 
L 412.132436 170.087341 
L 412.735256 170.760132 
L 413.338076 170.686401 
L 413.940895 171.110352 
L 414.543715 169.571228 
L 415.749354 165.704987 
L 416.352174 167.658844 
L 416.954993 171.032013 
L 417.557813 170.442169 
L 418.763452 170.174896 
L 419.366272 169.967529 
L 419.969092 166.631226 
L 420.571911 167.202637 
L 421.174731 165.626648 
L 421.777551 165.709595 
L 422.38037 166.446899 
L 422.98319 168.861572 
L 423.586009 170.575806 
L 424.188829 170.225586 
L 424.791649 170.451385 
L 425.394468 172.4375 
L 425.997288 172.308472 
L 426.600108 173.90105 
L 427.805747 172.452246 
L 428.408567 170.793311 
L 429.011386 169.720532 
L 429.614206 169.676294 
L 430.217026 169.200732 
L 430.819845 174.166479 
L 431.422665 169.112256 
L 432.025484 168.703052 
L 432.628304 171.158276 
L 433.231124 171.357349 
L 433.833943 172.883569 
L 434.436763 173.934229 
L 435.039583 172.584961 
L 435.642402 170.80437 
L 436.245222 169.731592 
L 436.848042 171.799731 
L 437.450861 170.173975 
L 438.053681 169.764771 
L 438.6565 171.202515 
L 439.25932 170.760132 
L 439.86214 168.282788 
L 440.464959 170.848608 
L 441.670599 166.137231 
L 442.273418 169.554639 
L 442.876238 168.669873 
L 444.081877 173.292773 
L 444.684697 174.630981 
L 445.287517 173.867871 
L 445.890336 171.987744 
L 446.493156 170.704834 
L 447.095975 167.143652 
L 447.698795 169.112256 
L 448.301615 170.240332 
L 448.904434 170.80437 
L 449.507254 167.895703 
L 450.110074 168.139014 
L 450.712893 171.290991 
L 451.315713 172.319531 
L 451.918533 171.987744 
L 452.521352 172.60708 
L 453.124172 174.885352 
L 453.726991 172.662378 
L 454.329811 171.766553 
L 454.932631 172.186816 
L 455.53545 167.951001 
L 456.13827 169.178613 
L 456.74109 170.008081 
L 457.343909 172.817212 
L 457.946729 174.686279 
L 458.549549 175.427271 
L 459.152368 175.150781 
L 459.755188 175.007007 
L 460.358008 171.622778 
L 460.960827 169.952783 
L 461.563647 174.39873 
L 462.166466 176.190381 
L 462.769286 172.09834 
L 463.372106 173.016284 
L 463.974925 173.359131 
L 464.577745 170.085498 
L 465.180565 166.104053 
L 465.783384 166.723389 
L 466.386204 164.953857 
L 466.989024 163.87002 
L 467.591843 166.645972 
L 468.797482 169.178613 
L 469.400302 170.903906 
L 470.003122 172.242114 
L 470.605941 169.200732 
L 471.208761 170.350928 
L 471.811581 169.399805 
L 472.4144 166.070874 
L 473.01722 166.645972 
L 473.62004 168.293848 
L 474.222859 167.320605 
L 474.825679 170.671655 
L 475.428499 172.596021 
L 476.031318 174.907471 
L 476.634138 174.122241 
L 477.839777 170.173975 
L 478.442597 170.439404 
L 479.045416 169.034839 
L 479.648236 171.57854 
L 480.251056 172.673438 
L 480.853875 172.08728 
L 480.853875 172.08728 
" clip-path="url(#p002d6f8091)" style="fill: none; stroke: #1a1a1a; stroke-opacity: 0.4; stroke-width: 1.5; stroke-linecap: round"/>
   </g>
   <g id="line2d_43">
    <path d="M 362.098406 60.205301 
L 362.701226 66.001958 
L 363.906865 75.063593 
L 364.509685 80.619825 
L 365.112504 81.925335 
L 366.318144 90.633545 
L 366.920963 92.369417 
L 368.126603 100.202477 
L 368.729422 102.217243 
L 369.332242 105.575986 
L 370.537881 108.631793 
L 371.140701 112.906558 
L 371.74352 115.760408 
L 372.34634 117.924237 
L 372.94916 119.402853 
L 373.551979 119.871683 
L 374.154799 121.448874 
L 374.757619 123.607894 
L 375.360438 123.131852 
L 375.963258 125.870298 
L 376.566078 125.225957 
L 377.168897 126.086681 
L 377.771717 127.151765 
L 378.977356 130.657168 
L 379.580176 133.330699 
L 380.182995 134.570202 
L 381.388635 138.571755 
L 381.991454 139.054355 
L 382.594274 139.247897 
L 383.799913 141.577947 
L 384.402733 141.665921 
L 385.005552 142.892528 
L 385.608372 142.95788 
L 386.211192 145.368364 
L 386.814011 145.659934 
L 387.416831 146.107344 
L 388.019651 144.365462 
L 388.62247 146.899109 
L 389.22529 146.703053 
L 389.82811 147.497331 
L 390.430929 148.623396 
L 391.033749 149.138672 
L 391.636569 149.178888 
L 392.239388 149.372431 
L 392.842208 151.159557 
L 394.650667 151.521507 
L 395.253486 153.024603 
L 395.856306 153.059792 
L 396.459126 155.372248 
L 397.061945 154.99019 
L 397.664765 154.306507 
L 398.870404 155.016044 
L 399.473224 153.883754 
L 400.076044 155.300432 
L 401.281683 154.089146 
L 401.884502 153.881121 
L 402.487322 155.724383 
L 403.090142 158.139056 
L 403.692961 156.667079 
L 404.295781 157.952096 
L 404.898601 156.459054 
L 405.50142 157.701939 
L 406.10424 156.403756 
L 406.70706 157.883632 
L 407.309879 158.054792 
L 407.912699 155.853411 
L 408.515518 157.270089 
L 409.118338 157.138428 
L 409.721158 158.594604 
L 410.323977 157.838867 
L 410.926797 159.553101 
L 411.529617 158.27335 
L 412.132436 156.261562 
L 412.735256 156.972534 
L 413.338076 156.535418 
L 413.940895 155.895543 
L 414.543715 157.751971 
L 415.146535 158.636736 
L 415.749354 159.887521 
L 416.352174 158.441877 
L 416.954993 158.391846 
L 418.160633 159.718994 
L 418.763452 158.997489 
L 419.366272 159.547834 
L 419.969092 160.880249 
L 420.571911 158.910592 
L 421.174731 159.550467 
L 421.777551 159.913853 
L 422.38037 160.637992 
L 422.98319 159.421439 
L 424.188829 158.726266 
L 425.394468 157.836234 
L 425.997288 158.78683 
L 426.600108 158.397112 
L 427.202927 158.95799 
L 427.805747 157.667707 
L 428.408567 160.524763 
L 429.011386 160.279872 
L 429.614206 160.714355 
L 430.217026 160.590594 
L 430.819845 159.713728 
L 431.422665 160.648525 
L 432.025484 162.065203 
L 432.628304 162.855172 
L 433.231124 162.957868 
L 433.833943 160.798619 
L 434.436763 161.106707 
L 435.039583 161.654419 
L 435.642402 160.429967 
L 436.245222 160.716989 
L 436.848042 163.366019 
L 437.450861 162.892038 
L 438.053681 162.612915 
L 438.6565 160.353603 
L 439.25932 163.33442 
L 440.464959 159.466204 
L 441.067779 161.987128 
L 441.670599 161.837823 
L 442.273418 162.495868 
L 442.876238 164.547418 
L 443.479058 166.189764 
L 444.081877 162.280206 
L 444.684697 162.150256 
L 445.287517 162.258087 
L 446.493156 166.05705 
L 447.095975 166.048755 
L 447.698795 164.76308 
L 448.301615 164.204572 
L 448.904434 163.452521 
L 450.110074 165.169519 
L 451.315713 164.649719 
L 451.918533 164.818378 
L 452.521352 164.262634 
L 453.124172 164.182452 
L 453.726991 163.029492 
L 454.329811 164.973212 
L 454.932631 166.31142 
L 455.53545 167.226599 
L 456.13827 164.691193 
L 456.74109 165.363062 
L 457.343909 165.448773 
L 457.946729 164.37876 
L 458.549549 165.645081 
L 459.152368 163.413812 
L 459.755188 162.946545 
L 460.358008 160.596387 
L 460.960827 163.670947 
L 461.563647 164.077386 
L 462.166466 165.639551 
L 462.769286 168.819177 
L 463.372106 166.670856 
L 463.974925 166.933521 
L 465.180565 164.212866 
L 465.783384 163.8479 
L 466.386204 163.228564 
L 466.989024 165.365826 
L 467.591843 164.608246 
L 468.194663 164.674603 
L 468.797482 166.363953 
L 469.400302 166.527081 
L 470.003122 165.808209 
L 470.605941 164.840497 
L 471.208761 165.222052 
L 472.4144 166.892047 
L 473.01722 165.725262 
L 473.62004 165.28288 
L 474.222859 165.39624 
L 474.825679 165.327118 
L 475.428499 164.953857 
L 476.031318 163.115204 
L 476.634138 165.025745 
L 477.236957 164.89856 
L 477.839777 165.705908 
L 478.442597 164.928973 
L 479.045416 163.272803 
L 479.648236 163.134558 
L 480.251056 163.623944 
L 480.853875 162.753003 
L 481.456695 156.91908 
L 481.456695 156.91908 
" clip-path="url(#p002d6f8091)" style="fill: none; stroke: #c44e52; stroke-opacity: 0.4; stroke-width: 1.5; stroke-linecap: round"/>
   </g>
   <g id="line2d_44">
    <path d="M 362.098406 170.474426 
L 362.701226 170.686401 
L 363.304045 171.04891 
L 363.906865 169.291667 
L 364.509685 169.777059 
L 365.112504 171.134928 
L 365.715324 171.300822 
L 366.318144 169.786275 
L 366.920963 169.844645 
L 367.523783 169.783203 
L 368.126603 171.933675 
L 368.729422 170.833862 
L 369.332242 169.463704 
L 369.935061 169.918376 
L 370.537881 170.867655 
L 371.140701 170.840007 
L 371.74352 170.689473 
L 372.34634 172.167155 
L 372.94916 170.621887 
L 373.551979 172.477437 
L 374.154799 170.600382 
L 374.757619 169.429911 
L 375.360438 170.23173 
L 375.963258 170.793925 
L 376.566078 170.354614 
L 377.168897 169.199504 
L 377.771717 170.680257 
L 378.374536 171.730916 
L 378.977356 171.386841 
L 379.580176 170.240946 
L 380.182995 170.94753 
L 380.785815 172.298103 
L 381.991454 170.283188 
L 382.594274 172.25663 
L 383.197094 172.56768 
L 383.799913 170.81543 
L 384.402733 170.338486 
L 385.005552 170.469818 
L 385.608372 171.06427 
L 386.211192 172.419067 
L 386.814011 173.238167 
L 387.416831 171.969772 
L 388.019651 171.347672 
L 388.62247 171.022797 
L 389.22529 172.021614 
L 389.82811 173.251991 
L 390.430929 171.911018 
L 391.033749 171.479004 
L 391.636569 171.841896 
L 392.239388 172.571136 
L 392.842208 171.949036 
L 393.445027 171.672546 
L 394.047847 172.349945 
L 394.650667 173.321114 
L 395.253486 173.421341 
L 395.856306 170.507835 
L 396.459126 171.091919 
L 397.061945 170.836166 
L 397.664765 170.81543 
L 398.267585 170.220978 
L 398.870404 169.09774 
L 399.473224 170.670273 
L 400.076044 169.764771 
L 400.678863 170.587326 
L 401.281683 169.681824 
L 401.884502 171.053902 
L 402.487322 171.610336 
L 403.090142 169.806244 
L 403.692961 166.631226 
L 403.692961 166.631226 
" clip-path="url(#p002d6f8091)" style="fill: none; stroke: #1a1a1a; stroke-opacity: 0.7; stroke-width: 1.5; stroke-linecap: round"/>
   </g>
   <g id="line2d_45">
    <path d="M 362.098406 145.629233 
L 362.701226 144.997258 
L 363.304045 146.664093 
L 363.906865 147.315818 
L 364.509685 148.469173 
L 365.112504 148.579769 
L 365.715324 150.290052 
L 366.318144 149.650177 
L 366.920963 150.175507 
L 367.523783 150.471745 
L 368.126603 150.199206 
L 368.729422 152.264975 
L 369.332242 152.9167 
L 369.935061 153.102343 
L 370.537881 152.92065 
L 371.140701 153.627672 
L 372.34634 154.445291 
L 372.94916 154.45319 
L 373.551979 154.836326 
L 374.757619 156.01733 
L 375.360438 154.773128 
L 375.963258 154.828426 
L 376.566078 156.617706 
L 377.168897 156.26222 
L 377.771717 156.688804 
L 378.374536 155.713191 
L 378.977356 156.748051 
L 379.580176 156.913945 
L 380.182995 157.613068 
L 380.785815 156.902095 
L 381.388635 157.158835 
L 381.991454 156.594007 
L 382.594274 156.77175 
L 383.197094 156.601907 
L 383.799913 157.80266 
L 384.402733 158.566956 
L 385.005552 158.488262 
L 385.608372 157.665175 
L 386.211192 158.966802 
L 386.814011 158.622253 
L 387.416831 159.530414 
L 388.019651 159.253571 
L 388.62247 158.769714 
L 389.82811 158.74437 
L 390.430929 159.24205 
L 391.033749 159.51456 
L 391.636569 159.338612 
L 392.239388 160.268621 
L 392.842208 159.765914 
L 393.445027 160.298784 
L 394.047847 159.190313 
L 394.650667 157.44089 
L 395.856306 160.38902 
L 396.459126 160.928174 
L 397.061945 159.457251 
L 397.664765 161.188074 
L 398.267585 160.682098 
L 398.870404 160.604681 
L 399.473224 160.209302 
L 400.076044 160.137415 
L 400.678863 159.930048 
L 401.281683 162.285736 
L 401.884502 160.057233 
L 402.487322 160.759515 
L 403.090142 160.845227 
L 403.692961 161.566864 
L 403.692961 161.566864 
" clip-path="url(#p002d6f8091)" style="fill: none; stroke: #c44e52; stroke-opacity: 0.7; stroke-width: 1.5; stroke-linecap: round"/>
   </g>
   <g id="line2d_46">
    <path d="M 362.098406 153.127348 
L 362.701226 153.632686 
L 363.304045 153.217526 
L 363.906865 153.520389 
L 364.509685 153.199661 
L 365.112504 153.573134 
L 365.715324 153.504225 
L 366.318144 153.973831 
L 366.920963 153.450628 
L 367.523783 154.072516 
L 368.126603 153.619925 
L 368.729422 154.063158 
L 370.537881 154.463004 
L 371.140701 155.227816 
L 371.74352 154.594018 
L 372.34634 154.97855 
L 372.94916 154.996416 
L 373.551979 155.148698 
L 374.154799 155.904151 
L 374.757619 155.320546 
L 375.963258 155.87948 
L 376.566078 155.892241 
L 377.168897 156.452025 
L 377.771717 156.689381 
L 378.374536 156.400131 
L 380.182995 156.777007 
L 380.785815 156.615367 
L 381.388635 156.679172 
L 381.991454 157.016489 
L 382.594274 156.761693 
L 383.197094 157.204927 
L 383.799913 156.925885 
L 384.402733 157.377626 
L 385.005552 157.381029 
L 385.608372 157.582228 
L 386.211192 158.201564 
L 386.814011 158.361503 
L 387.416831 158.801759 
L 388.019651 158.613746 
L 389.22529 158.767304 
L 389.82811 159.238186 
L 390.430929 159.369625 
L 391.636569 160.052221 
L 392.239388 159.529052 
L 392.842208 160.244036 
L 393.445027 160.431098 
L 394.047847 160.250084 
L 394.650667 160.436282 
L 395.253486 160.95902 
L 395.856306 161.276118 
L 396.459126 160.857496 
L 397.061945 160.762885 
L 397.664765 161.310247 
L 398.267585 161.45454 
L 398.870404 161.271366 
L 400.076044 161.926732 
L 400.678863 162.530256 
L 401.884502 162.202789 
L 402.487322 162.544513 
L 403.090142 162.411884 
L 403.692961 162.785145 
L 404.295781 162.636964 
L 405.50142 162.684917 
L 406.10424 163.235304 
L 406.70706 163.225368 
L 407.309879 163.388669 
L 407.912699 163.353244 
L 408.515518 163.953312 
L 409.118338 163.940351 
L 409.721158 163.580915 
L 410.323977 164.183576 
L 410.926797 164.02805 
L 412.132436 164.228937 
L 412.735256 164.560724 
L 415.749354 164.648855 
L 416.954993 164.931825 
L 417.557813 165.338782 
L 418.160633 165.198378 
L 418.763452 165.188441 
L 419.366272 165.450242 
L 419.969092 165.253243 
L 421.174731 165.447218 
L 422.38037 165.73494 
L 422.98319 166.142329 
L 423.586009 166.179482 
L 424.188829 165.851583 
L 424.791649 166.00106 
L 425.394468 165.995876 
L 425.997288 165.495172 
L 426.600108 166.245581 
L 427.202927 165.81011 
L 428.408567 166.403266 
L 429.011386 166.079687 
L 431.422665 166.395058 
L 432.025484 166.369137 
L 432.628304 166.055494 
L 433.231124 166.581688 
L 433.833943 166.468932 
L 435.039583 166.609769 
L 436.245222 166.944148 
L 436.848042 167.106153 
L 437.450861 167.097945 
L 438.053681 167.447877 
L 438.6565 167.390851 
L 439.25932 167.880755 
L 439.86214 167.985145 
L 440.464959 167.920631 
L 441.067779 168.013233 
L 442.273418 168.592983 
L 442.876238 168.182199 
L 443.479058 168.607465 
L 444.081877 168.62502 
L 444.684697 168.857622 
L 445.287517 168.54339 
L 445.890336 167.877183 
L 447.095975 168.333171 
L 447.698795 168.327026 
L 448.301615 168.15455 
L 448.904434 168.158061 
L 449.507254 168.046148 
L 451.315713 168.312105 
L 451.918533 168.643453 
L 452.521352 168.581133 
L 453.726991 168.867716 
L 454.329811 168.743516 
L 454.932631 168.909409 
L 456.13827 168.26734 
L 456.74109 168.515217 
L 457.946729 168.444311 
L 458.549549 168.654354 
L 459.152368 168.27262 
L 461.563647 168.261026 
L 462.166466 168.02601 
L 462.769286 168.468393 
L 463.372106 168.402838 
L 463.974925 168.006571 
L 464.577745 168.465271 
L 465.180565 168.347876 
L 465.783384 169.253945 
L 466.386204 168.585385 
L 466.989024 168.833319 
L 467.591843 168.822441 
L 468.194663 168.940289 
L 468.797482 168.905841 
L 469.400302 168.542325 
L 470.605941 168.415866 
L 471.811581 168.098583 
L 472.4144 167.853822 
L 473.62004 168.049177 
L 474.222859 167.714671 
L 474.825679 167.65348 
L 475.428499 168.158867 
L 476.634138 168.532354 
L 477.236957 168.186515 
L 477.839777 168.516489 
L 478.442597 168.633884 
L 479.045416 168.938022 
L 479.648236 168.479322 
L 480.251056 168.84601 
L 480.853875 168.662893 
L 481.456695 169.577153 
L 481.456695 169.577153 
" clip-path="url(#p002d6f8091)" style="fill: none; stroke: #1a1a1a; stroke-width: 1.5; stroke-linecap: round"/>
   </g>
   <g id="line2d_47">
    <path d="M 362.098406 86.426436 
L 365.112504 97.039557 
L 365.715324 98.419564 
L 366.318144 100.872999 
L 366.920963 102.278215 
L 368.126603 106.434499 
L 369.332242 109.812548 
L 369.935061 110.916878 
L 370.537881 113.03934 
L 372.34634 117.811219 
L 374.757619 122.742486 
L 375.360438 124.417686 
L 375.963258 125.181284 
L 376.566078 126.721492 
L 379.580176 132.014635 
L 380.182995 132.909972 
L 380.785815 133.25965 
L 381.388635 134.99584 
L 381.991454 135.418706 
L 382.594274 136.192876 
L 383.197094 136.661281 
L 383.799913 137.992495 
L 384.402733 138.810578 
L 385.005552 139.374128 
L 386.211192 141.129022 
L 386.814011 141.398192 
L 387.416831 142.330937 
L 388.019651 142.627756 
L 388.62247 143.771934 
L 389.82811 144.32166 
L 390.430929 144.791691 
L 391.033749 145.55529 
L 391.636569 146.044838 
L 392.842208 146.591311 
L 393.445027 147.432164 
L 394.047847 147.742808 
L 394.650667 147.920086 
L 395.856306 149.452975 
L 396.459126 149.668881 
L 397.061945 149.363116 
L 397.664765 150.138506 
L 398.870404 150.84274 
L 399.473224 151.480292 
L 400.678863 152.069865 
L 401.281683 152.633415 
L 401.884502 152.818825 
L 403.090142 152.851353 
L 403.692961 153.366518 
L 404.295781 153.666183 
L 404.898601 153.341309 
L 405.50142 153.448651 
L 406.10424 154.074412 
L 406.70706 154.350088 
L 407.309879 154.973408 
L 408.515518 155.25803 
L 409.118338 154.988046 
L 409.721158 155.600795 
L 410.926797 156.416438 
L 411.529617 156.308689 
L 412.132436 156.52988 
L 412.735256 156.238753 
L 413.338076 156.836865 
L 414.543715 157.400415 
L 415.146535 158.166453 
L 415.749354 157.729762 
L 416.352174 157.959086 
L 418.160633 158.140667 
L 418.763452 157.978075 
L 419.366272 157.66527 
L 421.174731 158.443567 
L 421.777551 158.436139 
L 422.38037 158.624729 
L 422.98319 158.449757 
L 423.586009 158.997784 
L 424.188829 158.920614 
L 424.791649 159.272622 
L 425.394468 159.463276 
L 427.202927 159.480195 
L 428.408567 159.961369 
L 430.217026 160.029047 
L 430.819845 160.469779 
L 431.422665 159.914325 
L 432.025484 160.037713 
L 432.628304 160.627832 
L 433.231124 160.364548 
L 433.833943 160.668274 
L 434.436763 160.364136 
L 435.039583 160.891529 
L 435.642402 160.940224 
L 436.245222 160.817661 
L 438.053681 161.804769 
L 438.6565 161.357846 
L 439.25932 161.609988 
L 439.86214 161.116434 
L 440.464959 162.035864 
L 441.067779 161.568308 
L 441.670599 161.861304 
L 442.876238 161.766803 
L 444.081877 162.770005 
L 445.287517 162.138206 
L 445.890336 162.512499 
L 446.493156 162.729151 
L 447.095975 162.010279 
L 448.301615 162.786924 
L 448.904434 162.715532 
L 449.507254 163.081984 
L 450.110074 162.516213 
L 451.315713 162.805082 
L 451.918533 163.50167 
L 452.521352 162.587192 
L 453.124172 162.947866 
L 453.726991 162.807558 
L 454.329811 162.915265 
L 454.932631 163.388598 
L 455.53545 163.098078 
L 456.13827 163.157503 
L 457.343909 162.975702 
L 457.946729 163.250516 
L 458.549549 162.720578 
L 459.152368 163.211556 
L 460.358008 163.359017 
L 463.372106 163.746521 
L 463.974925 163.228313 
L 464.577745 163.246327 
L 465.180565 162.628834 
L 465.783384 163.134055 
L 466.386204 163.146204 
L 466.989024 162.969838 
L 467.591843 163.030162 
L 468.194663 162.924594 
L 468.797482 162.643496 
L 469.400302 162.948054 
L 470.605941 162.656902 
L 471.208761 162.390467 
L 471.811581 162.420629 
L 472.4144 162.708848 
L 473.01722 162.837039 
L 473.62004 162.434035 
L 474.825679 162.231276 
L 475.428499 162.302113 
L 476.031318 161.683628 
L 476.634138 161.971176 
L 477.236957 161.624076 
L 477.839777 162.10304 
L 478.442597 161.388422 
L 479.045416 161.557293 
L 480.251056 161.196581 
L 480.853875 161.589621 
L 481.456695 161.353632 
L 481.456695 161.353632 
" clip-path="url(#p002d6f8091)" style="fill: none; stroke: #c44e52; stroke-width: 1.5; stroke-linecap: round"/>
   </g>
   <g id="line2d_48">
    <path d="M 363.906865 230.908711 
L 363.906865 13.468711 
" clip-path="url(#p002d6f8091)" style="fill: none; stroke-dasharray: 5.55,2.4; stroke-dashoffset: 0; stroke: #1a1a1a; stroke-width: 1.5"/>
   </g>
   <g id="patch_13">
    <path d="M 356.130492 230.908711 
L 356.130492 13.468711 
" style="fill: none; stroke: #262626; stroke-width: 1.25; stroke-linejoin: miter; stroke-linecap: square"/>
   </g>
   <g id="patch_14">
    <path d="M 487.424609 230.908711 
L 487.424609 13.468711 
" style="fill: none; stroke: #262626; stroke-width: 1.25; stroke-linejoin: miter; stroke-linecap: square"/>
   </g>
   <g id="patch_15">
    <path d="M 356.130492 230.908711 
L 487.424609 230.908711 
" style="fill: none; stroke: #262626; stroke-width: 1.25; stroke-linejoin: miter; stroke-linecap: square"/>
   </g>
   <g id="patch_16">
    <path d="M 356.130492 13.468711 
L 487.424609 13.468711 
" style="fill: none; stroke: #262626; stroke-width: 1.25; stroke-linejoin: miter; stroke-linecap: square"/>
   </g>
  </g>
 </g>
 <defs>
  <clipPath id="p562106b208">
   <rect x="41.024609" y="13.468711" width="131.294118" height="217.44"/>
  </clipPath>
  <clipPath id="p3b4046151f">
   <rect x="198.577551" y="13.468711" width="131.294118" height="217.44"/>
  </clipPath>
  <clipPath id="p002d6f8091">
   <rect x="356.130492" y="13.468711" width="131.294118" height="217.44"/>
  </clipPath>
 </defs>
</svg>
