<?xml version="1.0" encoding="utf-8" standalone="no"?>
<!DOCTYPE svg PUBLIC "-//W3C//DTD SVG 1.1//EN"
  "http://www.w3.org/Graphics/SVG/1.1/DTD/svg11.dtd">
<svg xmlns:xlink="http://www.w3.org/1999/xlink" width="517.536406pt" height="257.308906pt" viewBox="0 0 517.536406 257.308906" xmlns="http://www.w3.org/2000/svg" version="1.1">
 <metadata>
  <rdf:RDF xmlns:dc="http://purl.org/dc/elements/1.1/" xmlns:cc="http://creativecommons.org/ns#" xmlns:rdf="http://www.w3.org/1999/02/22-rdf-syntax-ns#">
   <cc:Work>
    <dc:type rdf:resource="http://purl.org/dc/dcmitype/StillImage"/>
    <dc:date>2022-09-05T15:02:00.366454</dc:date>
    <dc:format>image/svg+xml</dc:format>
    <dc:creator>
     <cc:Agent>
      <dc:title>Matplotlib v3.5.1, https://matplotlib.org/</dc:title>
     </cc:Agent>
    </dc:creator>
   </cc:Work>
  </rdf:RDF>
 </metadata>
 <defs>
  <style type="text/css">*{stroke-linejoin: round; stroke-linecap: butt}</style>
 </defs>
 <g id="figure_1">
  <g id="patch_1">
   <path d="M 0 257.308906 
L 517.536406 257.308906 
L 517.536406 0 
L 0 0 
L 0 257.308906 
z
" style="fill: none"/>
  </g>
  <g id="axes_1">
   <g id="patch_2">
    <path d="M 53.438281 224.64 
L 184.732399 224.64 
L 184.732399 7.2 
L 53.438281 7.2 
L 53.438281 224.64 
z
" style="fill: none"/>
   </g>
   <g id="matplotlib.axis_1">
    <g id="xtick_1">
     <g id="line2d_1">
      <defs>
       <path id="m6006f3eb6f" d="M 0 0 
L 0 6 
" style="stroke: #262626; stroke-width: 1.25"/>
      </defs>
      <g>
       <use xlink:href="#m6006f3eb6f" x="59.690382" y="224.64" style="fill: #262626; stroke: #262626; stroke-width: 1.25"/>
      </g>
     </g>
     <g id="text_1">
      <text style="fill: #262626; font: 16.5px 'sans-serif'; text-anchor: middle" x="59.690382" y="246.677422" transform="rotate(-0, 59.690382, 246.677422)">0</text>
     </g>
    </g>
    <g id="xtick_2">
     <g id="line2d_2">
      <g>
       <use xlink:href="#m6006f3eb6f" x="184.732399" y="224.64" style="fill: #262626; stroke: #262626; stroke-width: 1.25"/>
      </g>
     </g>
     <g id="text_2">
      <text style="fill: #262626; font: 16.5px 'sans-serif'; text-anchor: middle" x="184.732399" y="246.677422" transform="rotate(-0, 184.732399, 246.677422)">20</text>
     </g>
    </g>
   </g>
   <g id="matplotlib.axis_2">
    <g id="ytick_1">
     <g id="line2d_3">
      <defs>
       <path id="m0ae3ad1970" d="M 0 0 
L -6 0 
" style="stroke: #262626; stroke-width: 1.25"/>
      </defs>
      <g>
       <use xlink:href="#m0ae3ad1970" x="53.438281" y="186.000139" style="fill: #262626; stroke: #262626; stroke-width: 1.25"/>
      </g>
     </g>
     <g id="text_3">
      <text style="fill: #262626; font: 16.5px 'sans-serif'; text-anchor: end" x="43.938281" y="192.26885" transform="rotate(-0, 43.938281, 192.26885)">0.00</text>
     </g>
    </g>
    <g id="ytick_2">
     <g id="line2d_4">
      <g>
       <use xlink:href="#m0ae3ad1970" x="53.438281" y="142.886854" style="fill: #262626; stroke: #262626; stroke-width: 1.25"/>
      </g>
     </g>
     <g id="text_4">
      <text style="fill: #262626; font: 16.5px 'sans-serif'; text-anchor: end" x="43.938281" y="149.155565" transform="rotate(-0, 43.938281, 149.155565)">0.25</text>
     </g>
    </g>
    <g id="ytick_3">
     <g id="line2d_5">
      <g>
       <use xlink:href="#m0ae3ad1970" x="53.438281" y="99.77357" style="fill: #262626; stroke: #262626; stroke-width: 1.25"/>
      </g>
     </g>
     <g id="text_5">
      <text style="fill: #262626; font: 16.5px 'sans-serif'; text-anchor: end" x="43.938281" y="106.04228" transform="rotate(-0, 43.938281, 106.04228)">0.50</text>
     </g>
    </g>
    <g id="ytick_4">
     <g id="line2d_6">
      <g>
       <use xlink:href="#m0ae3ad1970" x="53.438281" y="56.660285" style="fill: #262626; stroke: #262626; stroke-width: 1.25"/>
      </g>
     </g>
     <g id="text_6">
      <text style="fill: #262626; font: 16.5px 'sans-serif'; text-anchor: end" x="43.938281" y="62.928996" transform="rotate(-0, 43.938281, 62.928996)">0.75</text>
     </g>
    </g>
    <g id="ytick_5">
     <g id="line2d_7">
      <g>
       <use xlink:href="#m0ae3ad1970" x="53.438281" y="13.547" style="fill: #262626; stroke: #262626; stroke-width: 1.25"/>
      </g>
     </g>
     <g id="text_7">
      <text style="fill: #262626; font: 16.5px 'sans-serif'; text-anchor: end" x="43.938281" y="19.815711" transform="rotate(-0, 43.938281, 19.815711)">1.00</text>
     </g>
    </g>
   </g>
   <g id="PolyCollection_1">
    <defs>
     <path id="m5594d1a0e2" d="M 53.438281 -72.535669 
L 53.438281 -71.023915 
L 55.522315 -70.124625 
L 57.606348 -70.741695 
L 59.690382 -70.48842 
L 61.774416 -70.723275 
L 63.858449 -71.487046 
L 65.942483 -70.87195 
L 68.026517 -74.355958 
L 70.11055 -76.679507 
L 72.194584 -70.529865 
L 74.278617 -74.976975 
L 76.362651 -78.5294 
L 78.446685 -74.190178 
L 80.530718 -76.600565 
L 82.614752 -73.477062 
L 84.698785 -75.142755 
L 86.782819 -72.982354 
L 88.866853 -72.013989 
L 90.950886 -73.984927 
L 93.03492 -69.758857 
L 95.118954 -75.403266 
L 97.202987 -74.00861 
L 99.287021 -71.577172 
L 101.371054 -70.627227 
L 103.455088 -69.0089 
L 105.539122 -69.645706 
L 107.623155 -68.458932 
L 109.707189 -70.682487 
L 111.791222 -69.127315 
L 113.875256 -67.811602 
L 115.95929 -66.5722 
L 118.043323 -72.798154 
L 120.127357 -65.782772 
L 122.21139 -67.724765 
L 124.295424 -71.698218 
L 126.379458 -68.298415 
L 128.463491 -69.85622 
L 130.547525 -66.59062 
L 132.631559 -65.40911 
L 134.715592 -66.97744 
L 136.799626 -67.819496 
L 138.883659 -65.15123 
L 140.967693 -63.835517 
L 143.051727 -65.056498 
L 145.13576 -64.993344 
L 147.219794 -66.748505 
L 149.303827 -62.661901 
L 151.387861 -63.019775 
L 153.471895 -61.056731 
L 155.555928 -58.330573 
L 157.639962 -59.235784 
L 159.723996 -65.177544 
L 161.808029 -61.356713 
L 163.892063 -59.372618 
L 165.976096 -57.01486 
L 168.06013 -63.819728 
L 170.144164 -62.877678 
L 172.228197 -60.498868 
L 174.312231 -60.288354 
L 176.396264 -56.699089 
L 178.480298 -59.056847 
L 180.564332 -60.698857 
L 182.648365 -56.204381 
L 182.648365 -80.855581 
L 182.648365 -80.855581 
L 180.564332 -82.823887 
L 178.480298 -83.202813 
L 176.396264 -82.023934 
L 174.312231 -82.581796 
L 172.228197 -82.834413 
L 170.144164 -82.855464 
L 168.06013 -81.944991 
L 165.976096 -81.687111 
L 163.892063 -80.602964 
L 161.808029 -83.171236 
L 159.723996 -82.550219 
L 157.639962 -82.097614 
L 155.555928 -82.287076 
L 153.471895 -82.202871 
L 151.387861 -84.023818 
L 149.303827 -82.887042 
L 147.219794 -84.823771 
L 145.13576 -85.844765 
L 143.051727 -85.771085 
L 140.967693 -86.234216 
L 138.883659 -84.918503 
L 136.799626 -84.108023 
L 134.715592 -87.265735 
L 132.631559 -86.402627 
L 130.547525 -84.265909 
L 128.463491 -85.381634 
L 126.379458 -86.065804 
L 124.295424 -86.613141 
L 122.21139 -86.697347 
L 120.127357 -85.497416 
L 118.043323 -84.002766 
L 115.95929 -84.108023 
L 113.875256 -83.044927 
L 111.791222 -82.413385 
L 109.707189 -82.171294 
L 107.623155 -80.53981 
L 105.539122 -81.939728 
L 103.455088 -80.829266 
L 101.371054 -81.81342 
L 99.287021 -83.602789 
L 97.202987 -83.518584 
L 95.118954 -83.855406 
L 93.03492 -83.23439 
L 90.950886 -83.044927 
L 88.866853 -81.455546 
L 86.782819 -84.171178 
L 84.698785 -85.571096 
L 82.614752 -81.623957 
L 80.530718 -80.750324 
L 78.446685 -80.518758 
L 76.362651 -82.023934 
L 74.278617 -81.302923 
L 72.194584 -78.608343 
L 70.11055 -77.645241 
L 68.026517 -74.913821 
L 65.942483 -73.650736 
L 63.858449 -74.108604 
L 61.774416 -72.46791 
L 59.690382 -72.621191 
L 57.606348 -72.452121 
L 55.522315 -70.941354 
L 53.438281 -72.535669 
z
" style="stroke: #ffffff; stroke-opacity: 0.8"/>
    </defs>
    <g clip-path="url(#pee5cde47f9)">
     <use xlink:href="#m5594d1a0e2" x="0" y="257.308906" style="fill: #1a1a1a; fill-opacity: 0.8; stroke: #ffffff; stroke-opacity: 0.8"/>
    </g>
   </g>
   <g id="PolyCollection_2">
    <defs>
     <path id="m778703d78a" d="M 53.438281 -73.998084 
L 53.438281 -70.808796 
L 55.522315 -70.308167 
L 57.606348 -69.508871 
L 59.690382 -70.337113 
L 61.774416 -71.901496 
L 63.858449 -72.666583 
L 65.942483 -75.634831 
L 68.026517 -78.318886 
L 70.11055 -78.629394 
L 72.194584 -82.171294 
L 74.278617 -86.507884 
L 76.362651 -89.791904 
L 78.446685 -95.138961 
L 80.530718 -100.233402 
L 82.614752 -106.885647 
L 84.698785 -114.148383 
L 86.782819 -122.589998 
L 88.866853 -130.757945 
L 90.950886 -139.936359 
L 93.03492 -149.788418 
L 95.118954 -158.293187 
L 97.202987 -167.640013 
L 99.287021 -174.629081 
L 101.371054 -179.934035 
L 103.455088 -187.512543 
L 105.539122 -193.070114 
L 107.623155 -200.648622 
L 109.707189 -200.48021 
L 111.791222 -209.237596 
L 113.875256 -209.069185 
L 115.95929 -212.521616 
L 118.043323 -216.900309 
L 120.127357 -217.826571 
L 122.21139 -225.152461 
L 124.295424 -224.98405 
L 126.379458 -225.320873 
L 128.463491 -224.899844 
L 130.547525 -223.384143 
L 132.631559 -224.057788 
L 134.715592 -222.28947 
L 136.799626 -220.35274 
L 138.883659 -216.816103 
L 140.967693 -213.363672 
L 143.051727 -207.300867 
L 145.13576 -204.774698 
L 147.219794 -199.301331 
L 149.303827 -195.596284 
L 151.387861 -189.701889 
L 153.471895 -187.596748 
L 155.555928 -183.470672 
L 157.639962 -180.018241 
L 159.723996 -175.134314 
L 161.808029 -171.176649 
L 163.892063 -168.734686 
L 165.976096 -163.26132 
L 168.06013 -160.145711 
L 170.144164 -158.04057 
L 172.228197 -154.798654 
L 174.312231 -151.135708 
L 176.396264 -147.135941 
L 178.480298 -144.567669 
L 180.564332 -142.125706 
L 182.648365 -138.336452 
L 182.648365 -152.735616 
L 182.648365 -152.735616 
L 180.564332 -157.198514 
L 178.480298 -162.419263 
L 176.396264 -166.376928 
L 174.312231 -168.482069 
L 172.228197 -172.860762 
L 170.144164 -175.723754 
L 168.06013 -179.344596 
L 165.976096 -182.965438 
L 163.892063 -187.596748 
L 161.808029 -185.660019 
L 159.723996 -190.45974 
L 157.639962 -196.185723 
L 155.555928 -200.817033 
L 153.471895 -204.101053 
L 151.387861 -203.006379 
L 149.303827 -211.09012 
L 147.219794 -213.616289 
L 145.13576 -220.94218 
L 143.051727 -216.058253 
L 140.967693 -225.489284 
L 138.883659 -229.61536 
L 136.799626 -231.467884 
L 134.715592 -232.730968 
L 132.631559 -237.025456 
L 130.547525 -235.172932 
L 128.463491 -237.867512 
L 126.379458 -237.951718 
L 124.295424 -239.130597 
L 122.21139 -239.299008 
L 120.127357 -234.499287 
L 118.043323 -232.89938 
L 115.95929 -229.362743 
L 113.875256 -225.741901 
L 111.791222 -223.720966 
L 109.707189 -216.142458 
L 107.623155 -212.605822 
L 105.539122 -203.511613 
L 103.455088 -196.43834 
L 101.371054 -187.680954 
L 99.287021 -178.670951 
L 97.202987 -169.660948 
L 95.118954 -158.966832 
L 93.03492 -154.756551 
L 90.950886 -145.746548 
L 88.866853 -141.199444 
L 86.782819 -135.978694 
L 84.698785 -135.220844 
L 82.614752 -121.326914 
L 80.530718 -122.211073 
L 78.446685 -115.1378 
L 76.362651 -108.232938 
L 74.278617 -103.306908 
L 72.194584 -101.643847 
L 70.11055 -98.001953 
L 68.026517 -91.623376 
L 65.942483 -84.255383 
L 63.858449 -79.613548 
L 61.774416 -73.703365 
L 59.690382 -72.163322 
L 57.606348 -72.186347 
L 55.522315 -71.039046 
L 53.438281 -73.998084 
z
" style="stroke: #ffffff; stroke-opacity: 0.8"/>
    </defs>
    <g clip-path="url(#pee5cde47f9)">
     <use xlink:href="#m778703d78a" x="0" y="257.308906" style="fill: #c44e52; fill-opacity: 0.8; stroke: #ffffff; stroke-opacity: 0.8"/>
    </g>
   </g>
   <g id="line2d_8">
    <path d="M 53.438281 185.529114 
L 55.522315 186.775752 
L 57.606348 185.712163 
L 59.690382 185.754266 
L 61.774416 185.713314 
L 63.858449 184.510752 
L 65.942483 185.047563 
L 68.026517 182.674017 
L 70.11055 180.147848 
L 72.194584 182.739802 
L 74.278617 179.168957 
L 76.362651 177.032239 
L 78.446685 179.953122 
L 80.530718 178.632146 
L 82.614752 179.758397 
L 84.698785 176.953297 
L 86.782819 178.732141 
L 88.866853 180.574139 
L 90.950886 178.795295 
L 93.03492 180.813599 
L 95.118954 177.67957 
L 97.202987 178.542678 
L 99.287021 179.721557 
L 101.371054 181.087267 
L 103.455088 182.389823 
L 105.539122 181.516189 
L 107.623155 182.80822 
L 109.707189 180.884647 
L 111.791222 181.539872 
L 113.875256 181.881958 
L 115.95929 181.968795 
L 118.043323 178.911078 
L 120.127357 181.671444 
L 122.21139 180.095219 
L 124.295424 178.153227 
L 126.379458 180.126796 
L 128.463491 179.68998 
L 130.547525 181.881958 
L 132.631559 181.400407 
L 134.715592 180.184688 
L 136.799626 181.347778 
L 138.883659 182.271409 
L 140.967693 182.271409 
L 143.051727 181.895115 
L 145.13576 181.88722 
L 147.219794 181.524084 
L 149.303827 184.537067 
L 151.387861 183.785794 
L 153.471895 185.680915 
L 155.555928 187.000081 
L 157.639962 186.638589 
L 159.723996 183.44634 
L 161.808029 185.04559 
L 163.892063 187.323089 
L 165.976096 187.95792 
L 168.06013 184.425231 
L 170.144164 184.441019 
L 172.228197 185.64391 
L 174.312231 185.872104 
L 176.396264 187.94871 
L 178.480298 186.173814 
L 180.564332 185.549179 
L 182.648365 188.776294 
" clip-path="url(#pee5cde47f9)" style="fill: none; stroke: #1a1a1a; stroke-width: 1.5; stroke-linecap: round"/>
   </g>
   <g id="line2d_9">
    <path d="M 53.438281 184.905466 
L 55.522315 186.6353 
L 57.606348 186.460968 
L 59.690382 186.058483 
L 61.774416 184.506805 
L 63.858449 181.168841 
L 65.942483 177.363799 
L 68.026517 172.337775 
L 70.11055 168.990601 
L 72.194584 165.401336 
L 74.278617 162.40151 
L 76.362651 158.296486 
L 78.446685 152.170526 
L 80.530718 146.086669 
L 82.614752 143.202626 
L 84.698785 132.613767 
L 86.782819 128.02456 
L 88.866853 121.330212 
L 90.950886 114.467453 
L 93.03492 105.036422 
L 95.118954 98.678896 
L 97.202987 88.658426 
L 99.287021 80.658891 
L 101.371054 73.501412 
L 103.455088 65.333465 
L 105.539122 59.018042 
L 107.623155 50.681685 
L 109.707189 48.997572 
L 111.791222 40.829625 
L 113.875256 39.903363 
L 115.95929 36.366727 
L 118.043323 32.409062 
L 120.127357 31.145977 
L 122.21139 25.083172 
L 124.295424 25.251583 
L 126.379458 25.672611 
L 128.463491 25.925228 
L 130.547525 28.030369 
L 132.631559 26.767284 
L 134.715592 29.798687 
L 136.799626 31.398594 
L 138.883659 34.093175 
L 140.967693 37.882428 
L 143.051727 45.629347 
L 145.13576 44.450468 
L 147.219794 50.850096 
L 149.303827 53.965704 
L 151.387861 60.954772 
L 153.471895 61.460006 
L 155.555928 65.165054 
L 157.639962 69.206924 
L 159.723996 74.511879 
L 161.808029 78.890572 
L 163.892063 79.143189 
L 165.976096 84.195527 
L 168.06013 87.563753 
L 170.144164 90.426744 
L 172.228197 93.458147 
L 174.312231 97.500017 
L 176.396264 100.573523 
L 178.480298 103.81544 
L 180.564332 107.646796 
L 182.648365 111.772872 
" clip-path="url(#pee5cde47f9)" style="fill: none; stroke: #c44e52; stroke-width: 1.5; stroke-linecap: round"/>
   </g>
   <g id="line2d_10">
    <path d="M 59.690382 224.64 
L 59.690382 7.2 
" clip-path="url(#pee5cde47f9)" style="fill: none; stroke-dasharray: 5.55,2.4; stroke-dashoffset: 0; stroke: #1a1a1a; stroke-width: 1.5"/>
   </g>
   <g id="patch_3">
    <path d="M 53.438281 224.64 
L 53.438281 7.2 
" style="fill: none; stroke: #262626; stroke-width: 1.25; stroke-linejoin: miter; stroke-linecap: square"/>
   </g>
   <g id="patch_4">
    <path d="M 184.732399 224.64 
L 184.732399 7.2 
" style="fill: none; stroke: #262626; stroke-width: 1.25; stroke-linejoin: miter; stroke-linecap: square"/>
   </g>
   <g id="patch_5">
    <path d="M 53.438281 224.64 
L 184.732399 224.64 
" style="fill: none; stroke: #262626; stroke-width: 1.25; stroke-linejoin: miter; stroke-linecap: square"/>
   </g>
   <g id="patch_6">
    <path d="M 53.438281 7.2 
L 184.732399 7.2 
" style="fill: none; stroke: #262626; stroke-width: 1.25; stroke-linejoin: miter; stroke-linecap: square"/>
   </g>
  </g>
  <g id="axes_2">
   <g id="patch_7">
    <path d="M 210.991222 224.64 
L 342.28534 224.64 
L 342.28534 7.2 
L 210.991222 7.2 
L 210.991222 224.64 
z
" style="fill: none"/>
   </g>
   <g id="matplotlib.axis_3">
    <g id="xtick_3">
     <g id="line2d_11">
      <g>
       <use xlink:href="#m6006f3eb6f" x="217.243323" y="224.64" style="fill: #262626; stroke: #262626; stroke-width: 1.25"/>
      </g>
     </g>
     <g id="text_8">
      <text style="fill: #262626; font: 16.5px 'sans-serif'; text-anchor: middle" x="217.243323" y="246.677422" transform="rotate(-0, 217.243323, 246.677422)">0</text>
     </g>
    </g>
    <g id="xtick_4">
     <g id="line2d_12">
      <g>
       <use xlink:href="#m6006f3eb6f" x="342.28534" y="224.64" style="fill: #262626; stroke: #262626; stroke-width: 1.25"/>
      </g>
     </g>
     <g id="text_9">
      <text style="fill: #262626; font: 16.5px 'sans-serif'; text-anchor: middle" x="342.28534" y="246.677422" transform="rotate(-0, 342.28534, 246.677422)">20</text>
     </g>
    </g>
   </g>
   <g id="matplotlib.axis_4">
    <g id="ytick_6">
     <g id="line2d_13">
      <g>
       <use xlink:href="#m0ae3ad1970" x="210.991222" y="186.000139" style="fill: #262626; stroke: #262626; stroke-width: 1.25"/>
      </g>
     </g>
    </g>
    <g id="ytick_7">
     <g id="line2d_14">
      <g>
       <use xlink:href="#m0ae3ad1970" x="210.991222" y="142.886854" style="fill: #262626; stroke: #262626; stroke-width: 1.25"/>
      </g>
     </g>
    </g>
    <g id="ytick_8">
     <g id="line2d_15">
      <g>
       <use xlink:href="#m0ae3ad1970" x="210.991222" y="99.77357" style="fill: #262626; stroke: #262626; stroke-width: 1.25"/>
      </g>
     </g>
    </g>
    <g id="ytick_9">
     <g id="line2d_16">
      <g>
       <use xlink:href="#m0ae3ad1970" x="210.991222" y="56.660285" style="fill: #262626; stroke: #262626; stroke-width: 1.25"/>
      </g>
     </g>
    </g>
    <g id="ytick_10">
     <g id="line2d_17">
      <g>
       <use xlink:href="#m0ae3ad1970" x="210.991222" y="13.547" style="fill: #262626; stroke: #262626; stroke-width: 1.25"/>
      </g>
     </g>
    </g>
   </g>
   <g id="PolyCollection_3">
    <defs>
     <path id="m2f5d5159a6" d="M 210.991222 -82.823887 
L 210.991222 -68.511561 
L 213.075256 -64.461796 
L 215.15929 -59.804172 
L 217.243323 -69.053635 
L 219.327357 -67.732659 
L 221.41139 -64.45127 
L 223.495424 -65.540681 
L 225.579458 -63.9513 
L 227.663491 -61.256719 
L 229.747525 -66.388 
L 231.831559 -64.751253 
L 233.915592 -61.288296 
L 235.999626 -60.862005 
L 238.083659 -58.267419 
L 240.167693 -59.793646 
L 242.251727 -56.835923 
L 244.33576 -55.657045 
L 246.419794 -53.857149 
L 248.503827 -53.172978 
L 250.587861 -52.488807 
L 252.671895 -52.099356 
L 254.755928 -51.225723 
L 256.839962 -51.920419 
L 258.923996 -51.941471 
L 261.008029 -51.688854 
L 263.092063 -50.699438 
L 265.176096 -50.688912 
L 267.26013 -51.920419 
L 269.344164 -49.83633 
L 271.428197 -51.709905 
L 273.512231 -48.278526 
L 275.596264 -49.39425 
L 277.680298 -50.236307 
L 279.764332 -50.920478 
L 281.848365 -50.015267 
L 283.932399 -52.625642 
L 286.016433 -50.025793 
L 288.100466 -49.015325 
L 290.1845 -46.531259 
L 292.268533 -46.341796 
L 294.352567 -48.404834 
L 296.436601 -45.478688 
L 298.520634 -47.099647 
L 300.604668 -49.773176 
L 302.688701 -48.48904 
L 304.772735 -46.931236 
L 306.856769 -45.289226 
L 308.940802 -47.710138 
L 311.024836 -44.447169 
L 313.108869 -47.541726 
L 315.192903 -46.215488 
L 317.276937 -47.268058 
L 319.36097 -48.404834 
L 321.445004 -49.183736 
L 323.529038 -50.720489 
L 325.613071 -48.278526 
L 327.697105 -54.257126 
L 329.781138 -51.667803 
L 331.865172 -48.068012 
L 333.949206 -49.120582 
L 336.033239 -46.531259 
L 338.117273 -48.994274 
L 340.201306 -49.204788 
L 340.201306 -70.345665 
L 340.201306 -70.345665 
L 338.117273 -69.30362 
L 336.033239 -71.856103 
L 333.949206 -73.129714 
L 331.865172 -73.103399 
L 329.781138 -76.640036 
L 327.697105 -77.050539 
L 325.613071 -75.98218 
L 323.529038 -74.976975 
L 321.445004 -74.166496 
L 319.36097 -74.087553 
L 317.276937 -73.67705 
L 315.192903 -72.782365 
L 313.108869 -72.066618 
L 311.024836 -73.698102 
L 308.940802 -73.366542 
L 306.856769 -72.340286 
L 304.772735 -73.056034 
L 302.688701 -75.087495 
L 300.604668 -77.350521 
L 298.520634 -78.145212 
L 296.436601 -77.861018 
L 294.352567 -75.266432 
L 292.268533 -73.82441 
L 290.1845 -76.045334 
L 288.100466 -76.345316 
L 286.016433 -75.976917 
L 283.932399 -77.782075 
L 281.848365 -77.908383 
L 279.764332 -77.508407 
L 277.680298 -78.250469 
L 275.596264 -80.408238 
L 273.512231 -80.955575 
L 271.428197 -82.592322 
L 269.344164 -81.497649 
L 267.26013 -80.297718 
L 265.176096 -81.234506 
L 263.092063 -81.102935 
L 261.008029 -83.434378 
L 258.923996 -80.592438 
L 256.839962 -82.276551 
L 254.755928 -84.444846 
L 252.671895 -83.044927 
L 250.587861 -84.592206 
L 248.503827 -84.28696 
L 246.419794 -84.971131 
L 244.33576 -85.802662 
L 242.251727 -86.686821 
L 240.167693 -88.318305 
L 238.083659 -86.181587 
L 235.999626 -85.686879 
L 233.915592 -85.750033 
L 231.831559 -87.486774 
L 229.747525 -88.486716 
L 227.663491 -85.276376 
L 225.579458 -85.844765 
L 223.495424 -85.192171 
L 221.41139 -82.487065 
L 219.327357 -84.43432 
L 217.243323 -82.139717 
L 215.15929 -83.171236 
L 213.075256 -82.097614 
L 210.991222 -82.823887 
z
" style="stroke: #ffffff; stroke-opacity: 0.8"/>
    </defs>
    <g clip-path="url(#pcff8d702e0)">
     <use xlink:href="#m2f5d5159a6" x="0" y="257.308906" style="fill: #1a1a1a; fill-opacity: 0.8; stroke: #ffffff; stroke-opacity: 0.8"/>
    </g>
   </g>
   <g id="PolyCollection_4">
    <defs>
     <path id="ma8bafdd0e9" d="M 210.991222 -201.911706 
L 210.991222 -156.103841 
L 213.075256 -165.366461 
L 215.15929 -175.639548 
L 217.243323 -188.101982 
L 219.327357 -194.754227 
L 221.41139 -197.364602 
L 223.495424 -198.290864 
L 225.579458 -203.76423 
L 227.663491 -207.974512 
L 229.747525 -207.974512 
L 231.831559 -212.942644 
L 233.915592 -211.174326 
L 235.999626 -206.879839 
L 238.083659 -204.943109 
L 240.167693 -199.638154 
L 242.251727 -195.933106 
L 244.33576 -194.670022 
L 246.419794 -188.438805 
L 248.503827 -182.375999 
L 250.587861 -175.976371 
L 252.671895 -171.176649 
L 254.755928 -166.040106 
L 256.839962 -157.872159 
L 258.923996 -157.156411 
L 261.008029 -152.94613 
L 263.092063 -147.809586 
L 265.176096 -143.515099 
L 267.26013 -140.610004 
L 269.344164 -137.452293 
L 271.428197 -132.568366 
L 273.512231 -128.73701 
L 275.596264 -125.789812 
L 277.680298 -123.853083 
L 279.764332 -120.863783 
L 281.848365 -118.590231 
L 283.932399 -116.864015 
L 286.016433 -112.359014 
L 288.100466 -111.895883 
L 290.1845 -108.759223 
L 292.268533 -106.527774 
L 294.352567 -103.812142 
L 296.436601 -103.012188 
L 298.520634 -99.833426 
L 300.604668 -98.380878 
L 302.688701 -99.012421 
L 304.772735 -97.749336 
L 306.856769 -96.31784 
L 308.940802 -94.991602 
L 311.024836 -95.054756 
L 313.108869 -93.749568 
L 315.192903 -98.149313 
L 317.276937 -91.549696 
L 319.36097 -91.549696 
L 321.445004 -91.560222 
L 323.529038 -89.834006 
L 325.613071 -87.907803 
L 327.697105 -89.381401 
L 329.781138 -86.813129 
L 331.865172 -87.802546 
L 333.949206 -87.307837 
L 336.033239 -85.486891 
L 338.117273 -84.234332 
L 340.201306 -86.213164 
L 340.201306 -106.380414 
L 340.201306 -106.380414 
L 338.117273 -106.92775 
L 336.033239 -107.51719 
L 333.949206 -108.232938 
L 331.865172 -109.832845 
L 329.781138 -110.674901 
L 327.697105 -112.569528 
L 325.613071 -113.285276 
L 323.529038 -113.537893 
L 321.445004 -115.516725 
L 319.36097 -117.411352 
L 317.276937 -118.548128 
L 315.192903 -119.727007 
L 313.108869 -121.621634 
L 311.024836 -122.547896 
L 308.940802 -124.1057 
L 306.856769 -125.242476 
L 304.772735 -127.937056 
L 302.688701 -129.031729 
L 300.604668 -131.72631 
L 298.520634 -134.378787 
L 296.436601 -137.452293 
L 294.352567 -140.946827 
L 292.268533 -143.894024 
L 290.1845 -146.251782 
L 288.100466 -148.356923 
L 286.016433 -151.514634 
L 283.932399 -154.419728 
L 281.848365 -158.798421 
L 279.764332 -161.91403 
L 277.680298 -165.366461 
L 275.596264 -169.071509 
L 273.512231 -173.955435 
L 271.428197 -176.902633 
L 269.344164 -182.460205 
L 267.26013 -187.091514 
L 265.176096 -191.554413 
L 263.092063 -196.269929 
L 261.008029 -201.659089 
L 258.923996 -205.70096 
L 256.839962 -209.911241 
L 254.755928 -214.37414 
L 252.671895 -219.847506 
L 250.587861 -223.805171 
L 248.503827 -229.02592 
L 246.419794 -231.888912 
L 244.33576 -234.920315 
L 242.251727 -237.025456 
L 240.167693 -237.362278 
L 238.083659 -239.467419 
L 235.999626 -240.22527 
L 233.915592 -239.130597 
L 231.831559 -236.014988 
L 229.747525 -233.236202 
L 227.663491 -228.857509 
L 225.579458 -223.63676 
L 223.495424 -218.668627 
L 221.41139 -215.553019 
L 219.327357 -214.458346 
L 217.243323 -230.204799 
L 215.15929 -207.469278 
L 213.075256 -200.396005 
L 210.991222 -201.911706 
z
" style="stroke: #ffffff; stroke-opacity: 0.8"/>
    </defs>
    <g clip-path="url(#pcff8d702e0)">
     <use xlink:href="#ma8bafdd0e9" x="0" y="257.308906" style="fill: #c44e52; fill-opacity: 0.8; stroke: #ffffff; stroke-opacity: 0.8"/>
    </g>
   </g>
   <g id="line2d_18">
    <path d="M 210.991222 181.639866 
L 213.075256 184.030517 
L 215.15929 185.824656 
L 217.243323 181.713546 
L 219.327357 181.224101 
L 221.41139 183.84237 
L 223.495424 181.945112 
L 225.579458 182.408243 
L 227.663491 184.042358 
L 229.747525 179.868917 
L 231.831559 181.187261 
L 233.915592 183.789742 
L 235.999626 184.03578 
L 238.083659 185.087692 
L 240.167693 183.252931 
L 242.251727 185.551152 
L 244.33576 186.579053 
L 246.419794 187.898713 
L 248.503827 188.582884 
L 250.587861 188.771031 
L 252.671895 189.736764 
L 254.755928 189.476253 
L 256.839962 190.213053 
L 258.923996 191.044583 
L 261.008029 189.74729 
L 263.092063 191.405089 
L 265.176096 191.347197 
L 267.26013 191.197206 
L 269.344164 191.641917 
L 271.428197 190.160424 
L 273.512231 192.689225 
L 275.596264 192.40503 
L 277.680298 193.06815 
L 279.764332 193.094464 
L 281.848365 193.347081 
L 283.932399 192.105048 
L 286.016433 194.310183 
L 288.100466 194.625954 
L 290.1845 196.02061 
L 292.268533 197.231066 
L 294.352567 195.473273 
L 296.436601 195.636422 
L 298.520634 194.689108 
L 300.604668 193.747058 
L 302.688701 195.515376 
L 304.772735 197.315272 
L 306.856769 198.49415 
L 308.940802 196.773198 
L 311.024836 198.241534 
L 313.108869 197.504734 
L 315.192903 197.80998 
L 317.276937 196.831089 
L 319.36097 196.062713 
L 321.445004 195.636422 
L 323.529038 194.457543 
L 325.613071 195.178554 
L 327.697105 191.657705 
L 329.781138 193.152356 
L 331.865172 196.720569 
L 333.949206 196.189021 
L 336.033239 198.115225 
L 338.117273 198.157328 
L 340.201306 197.536311 
" clip-path="url(#pcff8d702e0)" style="fill: none; stroke: #1a1a1a; stroke-width: 1.5; stroke-linecap: round"/>
   </g>
   <g id="line2d_19">
    <path d="M 210.991222 78.301133 
L 213.075256 74.427674 
L 215.15929 65.754493 
L 217.243323 48.155516 
L 219.327357 52.70262 
L 221.41139 50.850096 
L 223.495424 48.829161 
L 225.579458 43.608411 
L 227.663491 38.892896 
L 229.747525 36.703549 
L 231.831559 32.83009 
L 233.915592 32.156445 
L 235.999626 33.756352 
L 238.083659 35.103642 
L 240.167693 38.80869 
L 242.251727 40.829625 
L 244.33576 42.513738 
L 246.419794 47.145048 
L 248.503827 51.607947 
L 250.587861 57.418135 
L 252.671895 61.796828 
L 254.755928 67.101783 
L 256.839962 73.417206 
L 258.923996 75.859169 
L 261.008029 79.985245 
L 263.092063 85.2902 
L 265.176096 89.753099 
L 267.26013 93.458147 
L 269.344164 97.331606 
L 271.428197 102.594458 
L 273.512231 105.962684 
L 275.596264 109.878246 
L 277.680298 112.699134 
L 279.764332 115.941051 
L 281.848365 118.635632 
L 283.932399 121.667035 
L 286.016433 125.372082 
L 288.100466 127.182504 
L 290.1845 129.792878 
L 292.268533 132.108533 
L 294.352567 134.929422 
L 296.436601 137.076666 
L 298.520634 140.192274 
L 300.604668 142.255312 
L 302.688701 143.286831 
L 304.772735 144.46571 
L 306.856769 146.528748 
L 308.940802 147.770781 
L 311.024836 148.507581 
L 313.108869 149.623305 
L 315.192903 148.360221 
L 317.276937 152.254731 
L 319.36097 152.823119 
L 321.445004 153.770433 
L 323.529038 155.622957 
L 325.613071 156.71763 
L 327.697105 156.338705 
L 329.781138 158.570154 
L 331.865172 158.485948 
L 333.949206 159.538519 
L 336.033239 160.801603 
L 338.117273 161.727865 
L 340.201306 161.012117 
" clip-path="url(#pcff8d702e0)" style="fill: none; stroke: #c44e52; stroke-width: 1.5; stroke-linecap: round"/>
   </g>
   <g id="line2d_20">
    <path d="M 217.243323 224.64 
L 217.243323 7.2 
" clip-path="url(#pcff8d702e0)" style="fill: none; stroke-dasharray: 5.55,2.4; stroke-dashoffset: 0; stroke: #1a1a1a; stroke-width: 1.5"/>
   </g>
   <g id="patch_8">
    <path d="M 210.991222 224.64 
L 210.991222 7.2 
" style="fill: none; stroke: #262626; stroke-width: 1.25; stroke-linejoin: miter; stroke-linecap: square"/>
   </g>
   <g id="patch_9">
    <path d="M 342.28534 224.64 
L 342.28534 7.2 
" style="fill: none; stroke: #262626; stroke-width: 1.25; stroke-linejoin: miter; stroke-linecap: square"/>
   </g>
   <g id="patch_10">
    <path d="M 210.991222 224.64 
L 342.28534 224.64 
" style="fill: none; stroke: #262626; stroke-width: 1.25; stroke-linejoin: miter; stroke-linecap: square"/>
   </g>
   <g id="patch_11">
    <path d="M 210.991222 7.2 
L 342.28534 7.2 
" style="fill: none; stroke: #262626; stroke-width: 1.25; stroke-linejoin: miter; stroke-linecap: square"/>
   </g>
  </g>
  <g id="axes_3">
   <g id="patch_12">
    <path d="M 368.544164 224.64 
L 499.838281 224.64 
L 499.838281 7.2 
L 368.544164 7.2 
L 368.544164 224.64 
z
" style="fill: none"/>
   </g>
   <g id="matplotlib.axis_5">
    <g id="xtick_5">
     <g id="line2d_21">
      <g>
       <use xlink:href="#m6006f3eb6f" x="374.796264" y="224.64" style="fill: #262626; stroke: #262626; stroke-width: 1.25"/>
      </g>
     </g>
     <g id="text_10">
      <text style="fill: #262626; font: 16.5px 'sans-serif'; text-anchor: middle" x="374.796264" y="246.677422" transform="rotate(-0, 374.796264, 246.677422)">0</text>
     </g>
    </g>
    <g id="xtick_6">
     <g id="line2d_22">
      <g>
       <use xlink:href="#m6006f3eb6f" x="499.838281" y="224.64" style="fill: #262626; stroke: #262626; stroke-width: 1.25"/>
      </g>
     </g>
     <g id="text_11">
      <text style="fill: #262626; font: 16.5px 'sans-serif'; text-anchor: middle" x="499.838281" y="246.677422" transform="rotate(-0, 499.838281, 246.677422)">20</text>
     </g>
    </g>
   </g>
   <g id="matplotlib.axis_6">
    <g id="ytick_11">
     <g id="line2d_23">
      <g>
       <use xlink:href="#m0ae3ad1970" x="368.544164" y="186.000139" style="fill: #262626; stroke: #262626; stroke-width: 1.25"/>
      </g>
     </g>
    </g>
    <g id="ytick_12">
     <g id="line2d_24">
      <g>
       <use xlink:href="#m0ae3ad1970" x="368.544164" y="142.886854" style="fill: #262626; stroke: #262626; stroke-width: 1.25"/>
      </g>
     </g>
    </g>
    <g id="ytick_13">
     <g id="line2d_25">
      <g>
       <use xlink:href="#m0ae3ad1970" x="368.544164" y="99.77357" style="fill: #262626; stroke: #262626; stroke-width: 1.25"/>
      </g>
     </g>
    </g>
    <g id="ytick_14">
     <g id="line2d_26">
      <g>
       <use xlink:href="#m0ae3ad1970" x="368.544164" y="56.660285" style="fill: #262626; stroke: #262626; stroke-width: 1.25"/>
      </g>
     </g>
    </g>
    <g id="ytick_15">
     <g id="line2d_27">
      <g>
       <use xlink:href="#m0ae3ad1970" x="368.544164" y="13.547" style="fill: #262626; stroke: #262626; stroke-width: 1.25"/>
      </g>
     </g>
    </g>
   </g>
   <g id="PolyCollection_5">
    <defs>
     <path id="m87599af694" d="M 368.544164 -80.518758 
L 368.544164 -49.288993 
L 370.628197 -48.6364 
L 372.712231 -46.657567 
L 374.796264 -49.710022 
L 376.880298 -48.994274 
L 378.964332 -46.720722 
L 381.048365 -47.646984 
L 383.132399 -47.268058 
L 385.216433 -47.352264 
L 387.300466 -47.331212 
L 389.3845 -43.689319 
L 391.468533 -46.131282 
L 393.552567 -48.19432 
L 395.636601 -52.151985 
L 397.720634 -48.152217 
L 399.804668 -47.183853 
L 401.888701 -47.394367 
L 403.972735 -44.847146 
L 406.056769 -49.204788 
L 408.140802 -45.457637 
L 410.224836 -47.773292 
L 412.308869 -49.667919 
L 414.392903 -51.804637 
L 416.476937 -49.436353 
L 418.56097 -48.573245 
L 420.645004 -51.520443 
L 422.729038 -50.667861 
L 424.813071 -49.225839 
L 426.897105 -50.583655 
L 428.981138 -51.857265 
L 431.065172 -51.77306 
L 433.149206 -52.130934 
L 435.233239 -52.362499 
L 437.317273 -52.888784 
L 439.401306 -50.509975 
L 441.48534 -50.27841 
L 443.569374 -49.878433 
L 445.653407 -50.657335 
L 447.737441 -50.678386 
L 449.821475 -48.615348 
L 451.905508 -45.457637 
L 453.989542 -44.278758 
L 456.073575 -46.889133 
L 458.157609 -47.646984 
L 460.241643 -46.762824 
L 462.325676 -46.215488 
L 464.40971 -44.173501 
L 466.493743 -47.583829 
L 468.577777 -47.773292 
L 470.661811 -45.689203 
L 472.745844 -44.741889 
L 474.829878 -46.173385 
L 476.913912 -46.594413 
L 478.997945 -45.478688 
L 481.081979 -44.615581 
L 483.166012 -42.552543 
L 485.250046 -46.173385 
L 487.33408 -46.278642 
L 489.418113 -45.815511 
L 491.502147 -46.257591 
L 493.58618 -46.131282 
L 495.670214 -48.952171 
L 497.754248 -47.099647 
L 497.754248 -65.903818 
L 497.754248 -65.903818 
L 495.670214 -68.077376 
L 493.58618 -67.835284 
L 491.502147 -67.314262 
L 489.418113 -66.635354 
L 487.33408 -66.109069 
L 485.250046 -66.198537 
L 483.166012 -66.887971 
L 481.081979 -67.414256 
L 478.997945 -65.309115 
L 476.913912 -65.067024 
L 474.829878 -65.951183 
L 472.745844 -66.309057 
L 470.661811 -66.7564 
L 468.577777 -69.04574 
L 466.493743 -70.845636 
L 464.40971 -67.603719 
L 462.325676 -68.982586 
L 460.241643 -68.008959 
L 458.157609 -67.640559 
L 456.073575 -67.977381 
L 453.989542 -68.561558 
L 451.905508 -67.99317 
L 449.821475 -69.308883 
L 447.737441 -69.493083 
L 445.653407 -69.093106 
L 443.569374 -70.198305 
L 441.48534 -71.229824 
L 439.401306 -71.929783 
L 437.317273 -70.366716 
L 435.233239 -71.435075 
L 433.149206 -73.955981 
L 431.065172 -74.629627 
L 428.981138 -75.645357 
L 426.897105 -75.782191 
L 424.813071 -74.713832 
L 422.729038 -75.403266 
L 420.645004 -73.692839 
L 418.56097 -72.782365 
L 416.476937 -73.177079 
L 414.392903 -73.171817 
L 412.308869 -72.740263 
L 410.224836 -72.813943 
L 408.140802 -73.434959 
L 406.056769 -72.898148 
L 403.972735 -74.024399 
L 401.888701 -76.355842 
L 399.804668 -74.724358 
L 397.720634 -75.813768 
L 395.636601 -76.01902 
L 393.552567 -75.313797 
L 391.468533 -74.445427 
L 389.3845 -74.729621 
L 387.300466 -74.408587 
L 385.216433 -75.198015 
L 383.132399 -74.166496 
L 381.048365 -76.103225 
L 378.964332 -78.250469 
L 376.880298 -77.197898 
L 374.796264 -78.38204 
L 372.712231 -80.166147 
L 370.628197 -81.376603 
L 368.544164 -80.518758 
z
" style="stroke: #ffffff; stroke-opacity: 0.8"/>
    </defs>
    <g clip-path="url(#pe232161141)">
     <use xlink:href="#m87599af694" x="0" y="257.308906" style="fill: #1a1a1a; fill-opacity: 0.8; stroke: #ffffff; stroke-opacity: 0.8"/>
    </g>
   </g>
   <g id="PolyCollection_6">
    <defs>
     <path id="m23cfe8f5ea" d="M 368.544164 -197.196191 
L 368.544164 -138.589069 
L 370.628197 -137.452293 
L 372.712231 -132.442058 
L 374.796264 -129.073832 
L 376.880298 -125.789812 
L 378.964332 -124.400419 
L 381.048365 -119.390184 
L 383.132399 -119.053362 
L 385.216433 -117.032426 
L 387.300466 -115.011491 
L 389.3845 -113.327379 
L 391.468533 -109.243405 
L 393.552567 -106.822493 
L 395.636601 -105.454152 
L 397.720634 -104.948918 
L 399.804668 -102.633263 
L 401.888701 -100.1913 
L 403.972735 -98.296673 
L 406.056769 -97.854593 
L 408.140802 -96.991485 
L 410.224836 -94.717933 
L 412.308869 -92.581215 
L 414.392903 -94.760036 
L 416.476937 -94.086391 
L 418.56097 -94.086391 
L 420.645004 -92.097033 
L 422.729038 -90.455023 
L 424.813071 -91.212874 
L 426.897105 -89.191938 
L 428.981138 -87.749917 
L 431.065172 -86.781552 
L 433.149206 -87.297312 
L 435.233239 -86.213164 
L 437.317273 -86.834181 
L 439.401306 -86.423678 
L 441.48534 -86.560512 
L 443.569374 -83.950138 
L 445.653407 -82.223922 
L 447.737441 -82.108139 
L 449.821475 -83.792252 
L 451.905508 -80.813478 
L 453.989542 -82.760733 
L 456.073575 -79.755645 
L 458.157609 -82.023934 
L 460.241643 -86.360524 
L 462.325676 -83.508058 
L 464.40971 -82.781785 
L 466.493743 -81.208192 
L 468.577777 -79.550393 
L 470.661811 -84.476423 
L 472.745844 -79.83985 
L 474.829878 -79.324091 
L 476.913912 -81.287135 
L 478.997945 -81.48186 
L 481.081979 -82.360756 
L 483.166012 -79.992473 
L 485.250046 -78.834645 
L 487.33408 -79.166205 
L 489.418113 -82.444962 
L 491.502147 -77.518932 
L 493.58618 -77.087379 
L 495.670214 -80.308244 
L 497.754248 -81.213455 
L 497.754248 -87.149952 
L 497.754248 -87.149952 
L 495.670214 -86.623667 
L 493.58618 -86.128959 
L 491.502147 -86.37105 
L 489.418113 -86.760501 
L 487.33408 -86.171061 
L 485.250046 -87.844648 
L 483.166012 -88.876167 
L 481.081979 -90.297137 
L 478.997945 -90.865525 
L 476.913912 -91.370759 
L 474.829878 -92.360175 
L 472.745844 -93.581157 
L 470.661811 -94.549522 
L 468.577777 -94.97055 
L 466.493743 -95.833658 
L 464.40971 -97.496719 
L 462.325676 -98.25457 
L 460.241643 -98.465084 
L 458.157609 -101.349127 
L 456.073575 -101.075459 
L 453.989542 -102.064875 
L 451.905508 -102.380646 
L 449.821475 -104.08581 
L 447.737441 -105.180483 
L 445.653407 -105.917283 
L 443.569374 -106.675133 
L 441.48534 -108.56976 
L 439.401306 -109.748639 
L 437.317273 -110.464387 
L 435.233239 -110.801209 
L 433.149206 -113.032659 
L 431.065172 -114.106281 
L 428.981138 -113.601047 
L 426.897105 -115.516725 
L 424.813071 -117.53766 
L 422.729038 -118.716539 
L 420.645004 -120.232241 
L 418.56097 -121.747942 
L 416.476937 -122.842615 
L 414.392903 -124.526728 
L 412.308869 -125.831915 
L 410.224836 -128.189673 
L 408.140802 -130.463225 
L 406.056769 -132.021029 
L 403.972735 -133.999862 
L 401.888701 -136.652339 
L 399.804668 -139.936359 
L 397.720634 -143.851921 
L 395.636601 -146.546501 
L 393.552567 -148.356923 
L 391.468533 -152.188279 
L 389.3845 -154.840756 
L 387.300466 -158.545804 
L 385.216433 -162.756086 
L 383.132399 -165.282255 
L 381.048365 -170.081976 
L 378.964332 -173.87123 
L 376.880298 -176.902633 
L 374.796264 -181.702354 
L 372.712231 -187.344131 
L 370.628197 -191.554413 
L 368.544164 -197.196191 
z
" style="stroke: #ffffff; stroke-opacity: 0.8"/>
    </defs>
    <g clip-path="url(#pe232161141)">
     <use xlink:href="#m23cfe8f5ea" x="0" y="257.308906" style="fill: #c44e52; fill-opacity: 0.8; stroke: #ffffff; stroke-opacity: 0.8"/>
    </g>
   </g>
   <g id="line2d_28">
    <path d="M 368.544164 192.399768 
L 370.628197 192.299773 
L 372.712231 193.899681 
L 374.796264 193.262875 
L 376.880298 194.215452 
L 378.964332 194.825942 
L 381.048365 195.436433 
L 383.132399 196.594261 
L 385.216433 196.036398 
L 387.300466 196.436375 
L 389.3845 198.104699 
L 391.468533 197.020552 
L 393.552567 195.552216 
L 395.636601 193.226035 
L 397.720634 195.325913 
L 399.804668 196.35217 
L 401.888701 195.436433 
L 403.972735 197.873134 
L 406.056769 196.252175 
L 408.140802 197.862608 
L 410.224836 197.020552 
L 412.308869 196.104816 
L 414.392903 194.82068 
L 416.476937 196.004821 
L 418.56097 196.631101 
L 420.645004 194.699634 
L 422.729038 194.273343 
L 424.813071 195.341702 
L 426.897105 194.125983 
L 428.981138 193.557595 
L 431.065172 194.110195 
L 433.149206 194.26808 
L 435.233239 195.410119 
L 437.317273 195.683787 
L 439.401306 196.089027 
L 441.48534 196.552158 
L 443.569374 197.273169 
L 445.653407 197.431054 
L 447.737441 197.22054 
L 449.821475 198.346791 
L 451.905508 200.57824 
L 453.989542 200.894011 
L 456.073575 199.873018 
L 458.157609 199.662504 
L 460.241643 199.925646 
L 462.325676 199.715132 
L 464.40971 201.420296 
L 466.493743 198.094174 
L 468.577777 198.894127 
L 470.661811 201.083474 
L 472.745844 201.788696 
L 474.829878 201.241359 
L 476.913912 201.48345 
L 478.997945 201.915004 
L 481.081979 201.293988 
L 483.166012 202.588649 
L 485.250046 201.125577 
L 487.33408 201.115051 
L 489.418113 201.083474 
L 491.502147 200.525611 
L 493.58618 200.325623 
L 495.670214 198.78887 
L 497.754248 200.809805 
" clip-path="url(#pe232161141)" style="fill: none; stroke: #1a1a1a; stroke-width: 1.5; stroke-linecap: round"/>
   </g>
   <g id="line2d_29">
    <path d="M 368.544164 89.416277 
L 370.628197 92.784502 
L 372.712231 97.415812 
L 374.796264 101.920813 
L 376.880298 105.962684 
L 378.964332 108.194133 
L 381.048365 112.572826 
L 383.132399 115.141098 
L 385.216433 117.41465 
L 387.300466 120.530258 
L 389.3845 123.224839 
L 391.468533 126.593064 
L 393.552567 129.708673 
L 395.636601 131.30858 
L 397.720634 132.908487 
L 399.804668 136.024095 
L 401.888701 138.887087 
L 403.972735 141.160639 
L 406.056769 142.381621 
L 408.140802 143.581551 
L 410.224836 145.855103 
L 412.308869 148.107604 
L 414.392903 147.665524 
L 416.476937 148.844403 
L 418.56097 149.39174 
L 420.645004 151.139007 
L 422.729038 152.717862 
L 424.813071 152.928376 
L 426.897105 154.949312 
L 428.981138 156.633424 
L 431.065172 156.86499 
L 433.149206 157.138658 
L 435.233239 158.801719 
L 437.317273 158.65436 
L 439.401306 159.222748 
L 441.48534 159.749033 
L 443.569374 162.001534 
L 445.653407 163.243567 
L 447.737441 163.664595 
L 449.821475 163.369875 
L 451.905508 165.706581 
L 453.989542 164.896102 
L 456.073575 166.895986 
L 458.157609 165.622376 
L 460.241643 164.896102 
L 462.325676 166.432855 
L 464.40971 167.169654 
L 466.493743 168.790613 
L 468.577777 170.053697 
L 470.661811 167.801197 
L 472.745844 170.601034 
L 474.829878 171.464142 
L 476.913912 170.979959 
L 478.997945 171.137845 
L 481.081979 170.979959 
L 483.166012 172.874586 
L 485.250046 173.969259 
L 487.33408 174.642904 
L 489.418113 172.706175 
L 491.502147 175.363915 
L 493.58618 175.700738 
L 495.670214 173.842951 
L 497.754248 173.127203 
" clip-path="url(#pe232161141)" style="fill: none; stroke: #c44e52; stroke-width: 1.5; stroke-linecap: round"/>
   </g>
   <g id="line2d_30">
    <path d="M 374.796264 224.64 
L 374.796264 7.2 
" clip-path="url(#pe232161141)" style="fill: none; stroke-dasharray: 5.55,2.4; stroke-dashoffset: 0; stroke: #1a1a1a; stroke-width: 1.5"/>
   </g>
   <g id="patch_13">
    <path d="M 368.544164 224.64 
L 368.544164 7.2 
" style="fill: none; stroke: #262626; stroke-width: 1.25; stroke-linejoin: miter; stroke-linecap: square"/>
   </g>
   <g id="patch_14">
    <path d="M 499.838281 224.64 
L 499.838281 7.2 
" style="fill: none; stroke: #262626; stroke-width: 1.25; stroke-linejoin: miter; stroke-linecap: square"/>
   </g>
   <g id="patch_15">
    <path d="M 368.544164 224.64 
L 499.838281 224.64 
" style="fill: none; stroke: #262626; stroke-width: 1.25; stroke-linejoin: miter; stroke-linecap: square"/>
   </g>
   <g id="patch_16">
    <path d="M 368.544164 7.2 
L 499.838281 7.2 
" style="fill: none; stroke: #262626; stroke-width: 1.25; stroke-linejoin: miter; stroke-linecap: square"/>
   </g>
  </g>
 </g>
 <defs>
  <clipPath id="pee5cde47f9">
   <rect x="53.438281" y="7.2" width="131.294118" height="217.44"/>
  </clipPath>
  <clipPath id="pcff8d702e0">
   <rect x="210.991222" y="7.2" width="131.294118" height="217.44"/>
  </clipPath>
  <clipPath id="pe232161141">
   <rect x="368.544164" y="7.2" width="131.294118" height="217.44"/>
  </clipPath>
 </defs>
</svg>
