<?xml version="1.0" encoding="utf-8" standalone="no"?>
<!DOCTYPE svg PUBLIC "-//W3C//DTD SVG 1.1//EN"
  "http://www.w3.org/Graphics/SVG/1.1/DTD/svg11.dtd">
<svg xmlns:xlink="http://www.w3.org/1999/xlink" width="507.038281pt" height="257.308906pt" viewBox="0 0 507.038281 257.308906" xmlns="http://www.w3.org/2000/svg" version="1.1">
 <metadata>
  <rdf:RDF xmlns:dc="http://purl.org/dc/elements/1.1/" xmlns:cc="http://creativecommons.org/ns#" xmlns:rdf="http://www.w3.org/1999/02/22-rdf-syntax-ns#">
   <cc:Work>
    <dc:type rdf:resource="http://purl.org/dc/dcmitype/StillImage"/>
    <dc:date>2022-09-05T21:24:00.511827</dc:date>
    <dc:format>image/svg+xml</dc:format>
    <dc:creator>
     <cc:Agent>
      <dc:title>Matplotlib v3.5.1, https://matplotlib.org/</dc:title>
     </cc:Agent>
    </dc:creator>
   </cc:Work>
  </rdf:RDF>
 </metadata>
 <defs>
  <style type="text/css">*{stroke-linejoin: round; stroke-linecap: butt}</style>
 </defs>
 <g id="figure_1">
  <g id="patch_1">
   <path d="M 0 257.308906 
L 507.038281 257.308906 
L 507.038281 0 
L 0 0 
L 0 257.308906 
z
" style="fill: none"/>
  </g>
  <g id="axes_1">
   <g id="patch_2">
    <path d="M 53.438281 224.64 
L 184.732399 224.64 
L 184.732399 7.2 
L 53.438281 7.2 
L 53.438281 224.64 
z
" style="fill: none"/>
   </g>
   <g id="matplotlib.axis_1">
    <g id="xtick_1">
     <g id="line2d_1">
      <defs>
       <path id="m59ad293d2a" d="M 0 0 
L 0 6 
" style="stroke: #262626; stroke-width: 1.25"/>
      </defs>
      <g>
       <use xlink:href="#m59ad293d2a" x="70.596035" y="224.64" style="fill: #262626; stroke: #262626; stroke-width: 1.25"/>
      </g>
     </g>
     <g id="text_1">
      <text style="fill: #262626; font: 16.5px 'sans-serif'; text-anchor: middle" x="70.596035" y="246.677422" transform="rotate(-0, 70.596035, 246.677422)">0</text>
     </g>
    </g>
    <g id="xtick_2">
     <g id="line2d_2">
      <g>
       <use xlink:href="#m59ad293d2a" x="182.494431" y="224.64" style="fill: #262626; stroke: #262626; stroke-width: 1.25"/>
      </g>
     </g>
     <g id="text_2">
      <text style="fill: #262626; font: 16.5px 'sans-serif'; text-anchor: middle" x="182.494431" y="246.677422" transform="rotate(-0, 182.494431, 246.677422)">10</text>
     </g>
    </g>
   </g>
   <g id="matplotlib.axis_2">
    <g id="ytick_1">
     <g id="line2d_3">
      <defs>
       <path id="m05c282a8b0" d="M 0 0 
L -6 0 
" style="stroke: #262626; stroke-width: 1.25"/>
      </defs>
      <g>
       <use xlink:href="#m05c282a8b0" x="53.438281" y="183.407809" style="fill: #262626; stroke: #262626; stroke-width: 1.25"/>
      </g>
     </g>
     <g id="text_3">
      <text style="fill: #262626; font: 16.5px 'sans-serif'; text-anchor: end" x="43.938281" y="189.67652" transform="rotate(-0, 43.938281, 189.67652)">0.00</text>
     </g>
    </g>
    <g id="ytick_2">
     <g id="line2d_4">
      <g>
       <use xlink:href="#m05c282a8b0" x="53.438281" y="141.040657" style="fill: #262626; stroke: #262626; stroke-width: 1.25"/>
      </g>
     </g>
     <g id="text_4">
      <text style="fill: #262626; font: 16.5px 'sans-serif'; text-anchor: end" x="43.938281" y="147.309368" transform="rotate(-0, 43.938281, 147.309368)">0.25</text>
     </g>
    </g>
    <g id="ytick_3">
     <g id="line2d_5">
      <g>
       <use xlink:href="#m05c282a8b0" x="53.438281" y="98.673504" style="fill: #262626; stroke: #262626; stroke-width: 1.25"/>
      </g>
     </g>
     <g id="text_5">
      <text style="fill: #262626; font: 16.5px 'sans-serif'; text-anchor: end" x="43.938281" y="104.942215" transform="rotate(-0, 43.938281, 104.942215)">0.50</text>
     </g>
    </g>
    <g id="ytick_4">
     <g id="line2d_6">
      <g>
       <use xlink:href="#m05c282a8b0" x="53.438281" y="56.306352" style="fill: #262626; stroke: #262626; stroke-width: 1.25"/>
      </g>
     </g>
     <g id="text_6">
      <text style="fill: #262626; font: 16.5px 'sans-serif'; text-anchor: end" x="43.938281" y="62.575063" transform="rotate(-0, 43.938281, 62.575063)">0.75</text>
     </g>
    </g>
    <g id="ytick_5">
     <g id="line2d_7">
      <g>
       <use xlink:href="#m05c282a8b0" x="53.438281" y="13.939199" style="fill: #262626; stroke: #262626; stroke-width: 1.25"/>
      </g>
     </g>
     <g id="text_7">
      <text style="fill: #262626; font: 16.5px 'sans-serif'; text-anchor: end" x="43.938281" y="20.20791" transform="rotate(-0, 43.938281, 20.20791)">1.00</text>
     </g>
    </g>
   </g>
   <g id="PolyCollection_1">
    <defs>
     <path id="m106a9c9725" d="M 59.406196 -74.584417 
L 59.406196 -73.57673 
L 63.136142 -72.829247 
L 66.866089 -73.456001 
L 70.596035 -73.179635 
L 74.325982 -73.665781 
L 78.055928 -74.238555 
L 81.785875 -74.115725 
L 85.515821 -77.14897 
L 89.245768 -79.48661 
L 92.975714 -74.850117 
L 96.705661 -80.376155 
L 100.435607 -82.062152 
L 104.165554 -78.752219 
L 107.895501 -81.338104 
L 111.625447 -80.314094 
L 115.355394 -82.015607 
L 119.08534 -79.9831 
L 122.815287 -78.677228 
L 126.545233 -79.600389 
L 130.27518 -75.32592 
L 134.005126 -83.117194 
L 137.735073 -80.469247 
L 141.465019 -78.612581 
L 145.194966 -78.209183 
L 148.924912 -75.579337 
L 152.654859 -76.031867 
L 156.384805 -75.623297 
L 160.114752 -79.290083 
L 163.844698 -78.410882 
L 167.574645 -76.962786 
L 171.304591 -74.78547 
L 175.034538 -80.422701 
L 178.764484 -73.699398 
L 178.764484 -87.947628 
L 178.764484 -87.947628 
L 175.034538 -86.458158 
L 171.304591 -86.582281 
L 167.574645 -85.516896 
L 163.844698 -84.896283 
L 160.114752 -84.658382 
L 156.384805 -83.070648 
L 152.654859 -84.430824 
L 148.924912 -83.344752 
L 145.194966 -84.363591 
L 141.465019 -86.189226 
L 137.735073 -86.189226 
L 134.005126 -86.799495 
L 130.27518 -85.806515 
L 126.545233 -85.775484 
L 122.815287 -84.110174 
L 119.08534 -87.233924 
L 115.355394 -89.35435 
L 111.625447 -84.668725 
L 107.895501 -85.320369 
L 104.165554 -83.230973 
L 100.435607 -87.606292 
L 96.705661 -85.351399 
L 92.975714 -81.182951 
L 89.245768 -83.841242 
L 85.515821 -81.255356 
L 81.785875 -76.693854 
L 78.055928 -78.529833 
L 74.325982 -75.095776 
L 70.596035 -75.200505 
L 66.866089 -75.032422 
L 63.136142 -73.878147 
L 59.406196 -74.584417 
z
" style="stroke: #ffffff; stroke-opacity: 0.8"/>
    </defs>
    <g clip-path="url(#pbd307414db)">
     <use xlink:href="#m106a9c9725" x="0" y="257.308906" style="fill: #1a1a1a; fill-opacity: 0.8; stroke: #ffffff; stroke-opacity: 0.8"/>
    </g>
   </g>
   <g id="PolyCollection_2">
    <defs>
     <path id="m88809ec199" d="M 59.406196 -75.93231 
L 59.406196 -73.576568 
L 63.136142 -73.314747 
L 66.866089 -72.4349 
L 70.596035 -73.926956 
L 74.325982 -74.357506 
L 78.055928 -75.804309 
L 81.785875 -78.741875 
L 85.515821 -81.715644 
L 89.245768 -82.413833 
L 92.975714 -85.547926 
L 96.705661 -90.17149 
L 100.435607 -93.564172 
L 104.165554 -98.787662 
L 107.895501 -104.600733 
L 111.625447 -111.261975 
L 115.355394 -119.495435 
L 119.08534 -126.777289 
L 122.815287 -135.548614 
L 126.545233 -143.575203 
L 130.27518 -153.587753 
L 134.005126 -161.366097 
L 137.735073 -172.040634 
L 141.465019 -179.156991 
L 145.194966 -186.769839 
L 148.924912 -194.465435 
L 152.654859 -200.919806 
L 156.384805 -206.298449 
L 160.114752 -206.050204 
L 163.844698 -213.828548 
L 167.574645 -211.097853 
L 171.304591 -214.904276 
L 175.034538 -219.041694 
L 178.764484 -218.958945 
L 178.764484 -235.343118 
L 178.764484 -235.343118 
L 175.034538 -234.432886 
L 171.304591 -230.791959 
L 167.574645 -226.820038 
L 163.844698 -225.74431 
L 160.114752 -218.627952 
L 156.384805 -214.24229 
L 152.654859 -207.20868 
L 148.924912 -200.919806 
L 145.194966 -193.22421 
L 141.465019 -185.776859 
L 137.735073 -177.833018 
L 134.005126 -168.316958 
L 130.27518 -162.607323 
L 126.545233 -154.084243 
L 122.815287 -148.291859 
L 119.08534 -142.25123 
L 115.355394 -141.920236 
L 111.625447 -126.156677 
L 107.895501 -126.280799 
L 104.165554 -119.867802 
L 100.435607 -111.717091 
L 96.705661 -106.338448 
L 92.975714 -104.952413 
L 89.245768 -101.00118 
L 85.515821 -94.629557 
L 81.785875 -86.975335 
L 78.055928 -82.300054 
L 74.325982 -75.978856 
L 70.596035 -74.863046 
L 66.866089 -74.37593 
L 63.136142 -73.780692 
L 59.406196 -75.93231 
z
" style="stroke: #ffffff; stroke-opacity: 0.8"/>
    </defs>
    <g clip-path="url(#pbd307414db)">
     <use xlink:href="#m88809ec199" x="0" y="257.308906" style="fill: #c44e52; fill-opacity: 0.8; stroke: #ffffff; stroke-opacity: 0.8"/>
    </g>
   </g>
   <g id="line2d_8">
    <path d="M 59.406196 183.228252 
L 63.136142 183.955047 
L 66.866089 183.064856 
L 70.596035 183.118675 
L 74.325982 182.928127 
L 78.055928 180.924066 
L 81.785875 181.904117 
L 85.515821 178.106743 
L 89.245768 175.64498 
L 92.975714 179.291079 
L 96.705661 174.445129 
L 100.435607 172.474684 
L 104.165554 176.31731 
L 107.895501 173.97967 
L 111.625447 174.817497 
L 115.355394 171.626514 
L 119.08534 173.700394 
L 122.815287 175.913912 
L 126.545233 174.620969 
L 130.27518 176.741396 
L 134.005126 172.350562 
L 137.735073 173.97967 
L 141.465019 174.905417 
L 145.194966 176.02252 
L 148.924912 177.848155 
L 152.654859 177.077561 
L 156.384805 177.961934 
L 160.114752 175.334674 
L 163.844698 175.655324 
L 167.574645 176.069065 
L 171.304591 176.622445 
L 175.034538 173.865891 
L 178.764484 176.482807 
" clip-path="url(#pbd307414db)" style="fill: none; stroke: #1a1a1a; stroke-width: 1.5; stroke-linecap: round"/>
   </g>
   <g id="line2d_9">
    <path d="M 59.406196 182.554467 
L 63.136142 183.761106 
L 66.866089 183.90333 
L 70.596035 182.913905 
L 74.325982 182.140725 
L 78.055928 178.256725 
L 81.785875 174.450301 
L 85.515821 169.13372 
L 89.245768 165.606572 
L 92.975714 162.058736 
L 96.705661 159.059109 
L 100.435607 154.673447 
L 104.165554 147.970831 
L 107.895501 141.86814 
L 111.625447 138.599581 
L 115.355394 126.601071 
L 119.08534 122.794647 
L 122.815287 115.38867 
L 126.545233 108.479183 
L 130.27518 99.211369 
L 134.005126 92.467378 
L 137.735073 82.37208 
L 141.465019 74.841981 
L 145.194966 67.311882 
L 148.924912 59.616286 
L 152.654859 53.244663 
L 156.384805 47.038537 
L 160.114752 44.969829 
L 163.844698 37.522478 
L 167.574645 38.349961 
L 171.304591 34.460789 
L 175.034538 30.571617 
L 178.764484 30.157875 
" clip-path="url(#pbd307414db)" style="fill: none; stroke: #c44e52; stroke-width: 1.5; stroke-linecap: round"/>
   </g>
   <g id="line2d_10">
    <path d="M 70.596035 224.64 
L 70.596035 7.2 
" clip-path="url(#pbd307414db)" style="fill: none; stroke-dasharray: 5.55,2.4; stroke-dashoffset: 0; stroke: #1a1a1a; stroke-width: 1.5"/>
   </g>
   <g id="patch_3">
    <path d="M 53.438281 224.64 
L 53.438281 7.2 
" style="fill: none; stroke: #262626; stroke-width: 1.25; stroke-linejoin: miter; stroke-linecap: square"/>
   </g>
   <g id="patch_4">
    <path d="M 184.732399 224.64 
L 184.732399 7.2 
" style="fill: none; stroke: #262626; stroke-width: 1.25; stroke-linejoin: miter; stroke-linecap: square"/>
   </g>
   <g id="patch_5">
    <path d="M 53.438281 224.64 
L 184.732399 224.64 
" style="fill: none; stroke: #262626; stroke-width: 1.25; stroke-linejoin: miter; stroke-linecap: square"/>
   </g>
   <g id="patch_6">
    <path d="M 53.438281 7.2 
L 184.732399 7.2 
" style="fill: none; stroke: #262626; stroke-width: 1.25; stroke-linejoin: miter; stroke-linecap: square"/>
   </g>
  </g>
  <g id="axes_2">
   <g id="patch_7">
    <path d="M 210.991222 224.64 
L 342.28534 224.64 
L 342.28534 7.2 
L 210.991222 7.2 
L 210.991222 224.64 
z
" style="fill: none"/>
   </g>
   <g id="matplotlib.axis_3">
    <g id="xtick_3">
     <g id="line2d_11">
      <g>
       <use xlink:href="#m59ad293d2a" x="228.148976" y="224.64" style="fill: #262626; stroke: #262626; stroke-width: 1.25"/>
      </g>
     </g>
     <g id="text_8">
      <text style="fill: #262626; font: 16.5px 'sans-serif'; text-anchor: middle" x="228.148976" y="246.677422" transform="rotate(-0, 228.148976, 246.677422)">0</text>
     </g>
    </g>
    <g id="xtick_4">
     <g id="line2d_12">
      <g>
       <use xlink:href="#m59ad293d2a" x="340.047372" y="224.64" style="fill: #262626; stroke: #262626; stroke-width: 1.25"/>
      </g>
     </g>
     <g id="text_9">
      <text style="fill: #262626; font: 16.5px 'sans-serif'; text-anchor: middle" x="340.047372" y="246.677422" transform="rotate(-0, 340.047372, 246.677422)">10</text>
     </g>
    </g>
   </g>
   <g id="matplotlib.axis_4">
    <g id="ytick_6">
     <g id="line2d_13">
      <g>
       <use xlink:href="#m05c282a8b0" x="210.991222" y="183.407809" style="fill: #262626; stroke: #262626; stroke-width: 1.25"/>
      </g>
     </g>
    </g>
    <g id="ytick_7">
     <g id="line2d_14">
      <g>
       <use xlink:href="#m05c282a8b0" x="210.991222" y="141.040657" style="fill: #262626; stroke: #262626; stroke-width: 1.25"/>
      </g>
     </g>
    </g>
    <g id="ytick_8">
     <g id="line2d_15">
      <g>
       <use xlink:href="#m05c282a8b0" x="210.991222" y="98.673504" style="fill: #262626; stroke: #262626; stroke-width: 1.25"/>
      </g>
     </g>
    </g>
    <g id="ytick_9">
     <g id="line2d_16">
      <g>
       <use xlink:href="#m05c282a8b0" x="210.991222" y="56.306352" style="fill: #262626; stroke: #262626; stroke-width: 1.25"/>
      </g>
     </g>
    </g>
    <g id="ytick_10">
     <g id="line2d_17">
      <g>
       <use xlink:href="#m05c282a8b0" x="210.991222" y="13.939199" style="fill: #262626; stroke: #262626; stroke-width: 1.25"/>
      </g>
     </g>
    </g>
   </g>
   <g id="PolyCollection_3">
    <defs>
     <path id="mc9702425e0" d="M 216.959137 -85.310025 
L 216.959137 -71.478122 
L 220.689083 -65.300441 
L 224.41903 -60.868233 
L 228.148976 -69.639557 
L 231.878923 -68.284553 
L 235.608869 -64.669485 
L 239.338816 -66.31928 
L 243.068763 -65.740041 
L 246.798709 -62.368046 
L 250.528656 -66.784739 
L 254.258602 -64.488473 
L 257.988549 -63.511008 
L 261.718495 -63.707535 
L 265.448442 -59.306358 
L 269.178388 -61.716403 
L 272.908335 -60.195902 
L 276.638281 -59.10983 
L 280.368228 -57.878949 
L 284.098174 -56.420509 
L 287.828121 -56.741159 
L 291.558067 -56.420509 
L 295.288014 -53.64844 
L 299.01796 -54.082868 
L 302.747907 -55.561995 
L 306.477853 -55.530964 
L 310.2078 -53.586378 
L 313.937746 -53.131262 
L 317.667693 -55.6344 
L 321.39764 -53.927715 
L 325.127586 -56.513601 
L 328.857533 -52.241718 
L 332.587479 -53.731188 
L 336.317426 -51.724541 
L 336.317426 -80.76921 
L 336.317426 -80.76921 
L 332.587479 -82.915495 
L 328.857533 -83.443015 
L 325.127586 -85.082467 
L 321.39764 -83.986051 
L 317.667693 -82.817231 
L 313.937746 -83.74815 
L 310.2078 -83.598169 
L 306.477853 -85.899607 
L 302.747907 -83.07582 
L 299.01796 -84.761817 
L 295.288014 -86.913274 
L 291.558067 -85.506552 
L 287.828121 -87.04774 
L 284.098174 -86.747777 
L 280.368228 -87.420108 
L 276.638281 -88.237248 
L 272.908335 -89.116449 
L 269.178388 -90.761072 
L 265.448442 -88.640646 
L 261.718495 -88.144156 
L 257.988549 -88.195874 
L 254.258602 -89.912902 
L 250.528656 -90.926569 
L 246.798709 -87.730414 
L 243.068763 -88.288965 
L 239.338816 -87.647666 
L 235.608869 -84.948001 
L 231.878923 -86.902931 
L 228.148976 -84.606664 
L 224.41903 -85.651362 
L 220.689083 -84.575633 
L 216.959137 -85.310025 
z
" style="stroke: #ffffff; stroke-opacity: 0.8"/>
    </defs>
    <g clip-path="url(#p7c789863b4)">
     <use xlink:href="#mc9702425e0" x="0" y="257.308906" style="fill: #1a1a1a; fill-opacity: 0.8; stroke: #ffffff; stroke-opacity: 0.8"/>
    </g>
   </g>
   <g id="PolyCollection_4">
    <defs>
     <path id="m659e93bc28" d="M 216.959137 -201.830038 
L 216.959137 -158.966395 
L 220.689083 -168.151462 
L 224.41903 -178.577753 
L 228.148976 -190.493515 
L 231.878923 -196.20315 
L 235.608869 -198.271859 
L 239.338816 -198.933846 
L 243.068763 -203.402256 
L 246.798709 -208.284409 
L 250.528656 -208.036164 
L 254.258602 -212.835568 
L 257.988549 -211.097853 
L 261.718495 -206.960435 
L 265.448442 -205.470965 
L 269.178388 -200.257819 
L 272.908335 -197.030634 
L 276.638281 -195.127422 
L 280.368228 -189.25229 
L 284.098174 -184.204641 
L 287.828121 -177.998515 
L 291.558067 -172.868117 
L 295.288014 -167.903217 
L 299.01796 -160.042124 
L 302.747907 -159.545634 
L 306.477853 -155.656462 
L 310.2078 -149.9882 
L 313.937746 -145.974905 
L 317.667693 -143.492455 
L 321.39764 -140.720385 
L 325.127586 -135.879607 
L 328.857533 -131.493945 
L 332.587479 -128.515004 
L 336.317426 -127.191031 
L 336.317426 -166.24825 
L 336.317426 -166.24825 
L 332.587479 -169.971925 
L 328.857533 -175.102323 
L 325.127586 -177.419276 
L 321.39764 -183.046164 
L 317.667693 -187.845568 
L 313.937746 -192.313978 
L 310.2078 -197.030634 
L 306.477853 -202.492025 
L 302.747907 -206.381197 
L 299.01796 -210.684111 
L 295.288014 -215.069773 
L 291.558067 -220.531164 
L 287.828121 -224.172091 
L 284.098174 -229.21974 
L 280.368228 -232.115932 
L 276.638281 -235.508614 
L 272.908335 -237.411826 
L 269.178388 -237.660071 
L 265.448442 -239.563283 
L 261.718495 -240.22527 
L 257.988549 -239.23229 
L 254.258602 -236.336098 
L 250.528656 -233.688151 
L 246.798709 -229.302488 
L 243.068763 -223.923846 
L 239.338816 -219.455435 
L 235.608869 -216.310998 
L 231.878923 -214.573283 
L 228.148976 -230.543714 
L 224.41903 -208.863647 
L 220.689083 -200.754309 
L 216.959137 -201.830038 
z
" style="stroke: #ffffff; stroke-opacity: 0.8"/>
    </defs>
    <g clip-path="url(#p7c789863b4)">
     <use xlink:href="#m659e93bc28" x="0" y="257.308906" style="fill: #c44e52; fill-opacity: 0.8; stroke: #ffffff; stroke-opacity: 0.8"/>
    </g>
   </g>
   <g id="line2d_18">
    <path d="M 216.959137 178.916126 
L 220.689083 182.373455 
L 224.41903 184.052665 
L 228.148976 180.185796 
L 231.878923 179.71775 
L 235.608869 182.497577 
L 239.338816 180.322848 
L 243.068763 180.296989 
L 246.798709 182.256444 
L 250.528656 178.453252 
L 254.258602 180.108219 
L 257.988549 181.456758 
L 261.718495 181.384354 
L 265.448442 183.33197 
L 269.178388 181.070169 
L 272.908335 182.649498 
L 276.638281 183.638761 
L 280.368228 184.66261 
L 284.098174 185.728642 
L 287.828121 185.410578 
L 291.558067 186.34279 
L 295.288014 187.025463 
L 299.01796 187.886563 
L 302.747907 187.989999 
L 306.477853 186.596206 
L 310.2078 188.719219 
L 313.937746 188.8692 
L 317.667693 188.083091 
L 321.39764 188.352023 
L 325.127586 186.508286 
L 328.857533 189.463954 
L 332.587479 188.988151 
L 336.317426 191.062031 
" clip-path="url(#p7c789863b4)" style="fill: none; stroke: #1a1a1a; stroke-width: 1.5; stroke-linecap: round"/>
   </g>
   <g id="line2d_19">
    <path d="M 216.959137 76.91069 
L 220.689083 72.856021 
L 224.41903 63.588206 
L 228.148976 46.790292 
L 231.878923 51.920689 
L 235.608869 50.017478 
L 239.338816 48.114266 
L 243.068763 43.645855 
L 246.798709 38.515458 
L 250.528656 36.446749 
L 254.258602 32.723074 
L 257.988549 32.143835 
L 261.718495 33.716054 
L 265.448442 34.791782 
L 269.178388 38.349961 
L 272.908335 40.087676 
L 276.638281 41.990888 
L 280.368228 46.624795 
L 284.098174 50.596716 
L 287.828121 56.223603 
L 291.558067 60.609266 
L 295.288014 65.822411 
L 299.01796 71.945789 
L 302.747907 74.345491 
L 306.477853 78.234663 
L 310.2078 83.778802 
L 313.937746 88.164464 
L 317.667693 91.639895 
L 321.39764 95.446319 
L 325.127586 100.659465 
L 328.857533 104.010773 
L 332.587479 108.065441 
L 336.317426 110.589266 
" clip-path="url(#p7c789863b4)" style="fill: none; stroke: #c44e52; stroke-width: 1.5; stroke-linecap: round"/>
   </g>
   <g id="line2d_20">
    <path d="M 228.148976 224.64 
L 228.148976 7.2 
" clip-path="url(#p7c789863b4)" style="fill: none; stroke-dasharray: 5.55,2.4; stroke-dashoffset: 0; stroke: #1a1a1a; stroke-width: 1.5"/>
   </g>
   <g id="patch_8">
    <path d="M 210.991222 224.64 
L 210.991222 7.2 
" style="fill: none; stroke: #262626; stroke-width: 1.25; stroke-linejoin: miter; stroke-linecap: square"/>
   </g>
   <g id="patch_9">
    <path d="M 342.28534 224.64 
L 342.28534 7.2 
" style="fill: none; stroke: #262626; stroke-width: 1.25; stroke-linejoin: miter; stroke-linecap: square"/>
   </g>
   <g id="patch_10">
    <path d="M 210.991222 224.64 
L 342.28534 224.64 
" style="fill: none; stroke: #262626; stroke-width: 1.25; stroke-linejoin: miter; stroke-linecap: square"/>
   </g>
   <g id="patch_11">
    <path d="M 210.991222 7.2 
L 342.28534 7.2 
" style="fill: none; stroke: #262626; stroke-width: 1.25; stroke-linejoin: miter; stroke-linecap: square"/>
   </g>
  </g>
  <g id="axes_3">
   <g id="patch_12">
    <path d="M 368.544164 224.64 
L 499.838281 224.64 
L 499.838281 7.2 
L 368.544164 7.2 
L 368.544164 224.64 
z
" style="fill: none"/>
   </g>
   <g id="matplotlib.axis_5">
    <g id="xtick_5">
     <g id="line2d_21">
      <g>
       <use xlink:href="#m59ad293d2a" x="376.320537" y="224.64" style="fill: #262626; stroke: #262626; stroke-width: 1.25"/>
      </g>
     </g>
     <g id="text_10">
      <text style="fill: #262626; font: 16.5px 'sans-serif'; text-anchor: middle" x="376.320537" y="246.677422" transform="rotate(-0, 376.320537, 246.677422)">0</text>
     </g>
    </g>
    <g id="xtick_6">
     <g id="line2d_22">
      <g>
       <use xlink:href="#m59ad293d2a" x="466.743483" y="224.64" style="fill: #262626; stroke: #262626; stroke-width: 1.25"/>
      </g>
     </g>
     <g id="text_11">
      <text style="fill: #262626; font: 16.5px 'sans-serif'; text-anchor: middle" x="466.743483" y="246.677422" transform="rotate(-0, 466.743483, 246.677422)">50</text>
     </g>
    </g>
   </g>
   <g id="matplotlib.axis_6">
    <g id="ytick_11">
     <g id="line2d_23">
      <g>
       <use xlink:href="#m05c282a8b0" x="368.544164" y="183.407809" style="fill: #262626; stroke: #262626; stroke-width: 1.25"/>
      </g>
     </g>
    </g>
    <g id="ytick_12">
     <g id="line2d_24">
      <g>
       <use xlink:href="#m05c282a8b0" x="368.544164" y="141.040657" style="fill: #262626; stroke: #262626; stroke-width: 1.25"/>
      </g>
     </g>
    </g>
    <g id="ytick_13">
     <g id="line2d_25">
      <g>
       <use xlink:href="#m05c282a8b0" x="368.544164" y="98.673504" style="fill: #262626; stroke: #262626; stroke-width: 1.25"/>
      </g>
     </g>
    </g>
    <g id="ytick_14">
     <g id="line2d_26">
      <g>
       <use xlink:href="#m05c282a8b0" x="368.544164" y="56.306352" style="fill: #262626; stroke: #262626; stroke-width: 1.25"/>
      </g>
     </g>
    </g>
    <g id="ytick_15">
     <g id="line2d_27">
      <g>
       <use xlink:href="#m05c282a8b0" x="368.544164" y="13.939199" style="fill: #262626; stroke: #262626; stroke-width: 1.25"/>
      </g>
     </g>
    </g>
   </g>
   <g id="PolyCollection_5">
    <defs>
     <path id="m112922e642" d="M 374.512078 -83.029562 
L 374.512078 -53.119102 
L 375.114898 -52.933956 
L 375.717717 -51.861034 
L 376.320537 -54.721956 
L 376.923357 -53.238708 
L 377.526176 -51.037668 
L 378.128996 -49.801407 
L 378.731816 -51.925336 
L 379.334635 -52.196033 
L 379.937455 -52.09556 
L 380.540274 -47.9326 
L 381.143094 -50.066388 
L 381.745914 -53.206744 
L 382.348733 -52.658253 
L 382.951553 -50.699695 
L 383.554373 -50.412367 
L 384.157192 -51.279178 
L 384.760012 -47.463104 
L 385.362832 -49.940336 
L 385.965651 -46.614614 
L 386.568471 -50.179115 
L 387.17129 -52.286727 
L 387.77411 -50.994748 
L 388.37693 -49.942129 
L 388.979749 -50.642393 
L 389.582569 -53.364611 
L 390.185389 -51.003067 
L 390.788208 -48.716196 
L 391.391028 -49.728963 
L 391.993848 -51.941642 
L 392.596667 -50.234451 
L 393.199487 -47.345004 
L 393.802307 -48.4311 
L 394.405126 -49.872084 
L 395.007946 -46.660992 
L 395.610765 -45.825184 
L 396.213585 -48.739758 
L 396.816405 -49.214789 
L 397.419224 -49.180102 
L 398.022044 -47.994172 
L 398.624864 -44.859742 
L 399.227683 -43.56031 
L 399.830503 -45.870435 
L 400.433323 -46.889782 
L 401.036142 -47.740573 
L 401.638962 -46.194533 
L 402.241781 -43.261377 
L 402.844601 -47.062981 
L 403.447421 -47.008796 
L 404.05024 -45.38155 
L 404.65306 -43.974152 
L 405.25588 -44.835701 
L 405.858699 -44.893482 
L 406.461519 -43.875932 
L 407.064339 -42.837851 
L 407.667158 -42.552543 
L 408.269978 -48.041216 
L 408.872798 -46.721023 
L 409.475617 -46.924553 
L 410.078437 -47.292993 
L 410.681256 -49.0251 
L 411.284076 -51.050923 
L 411.886896 -47.476507 
L 412.489715 -48.17659 
L 413.092535 -47.261014 
L 413.695355 -48.490503 
L 414.298174 -45.902249 
L 414.900994 -45.340234 
L 415.503814 -48.703224 
L 416.106633 -55.113234 
L 416.709453 -65.604642 
L 417.312272 -63.63891 
L 417.915092 -64.482215 
L 418.517912 -60.396344 
L 419.120731 -58.751306 
L 419.723551 -56.987493 
L 420.326371 -55.193986 
L 420.92919 -51.381299 
L 421.53201 -57.094391 
L 422.13483 -57.58137 
L 422.737649 -54.469457 
L 423.340469 -55.770046 
L 423.943289 -55.425598 
L 424.546108 -58.87602 
L 425.148928 -58.008961 
L 425.751747 -58.103981 
L 426.354567 -57.557615 
L 426.957387 -59.541162 
L 427.560206 -62.284872 
L 428.163026 -63.386717 
L 428.765846 -62.00575 
L 429.368665 -57.658574 
L 429.971485 -58.418736 
L 430.574305 -58.561266 
L 431.177124 -58.763184 
L 431.779944 -59.030428 
L 432.382764 -62.365074 
L 432.985583 -62.10729 
L 433.588403 -62.037184 
L 434.191222 -61.872144 
L 434.794042 -61.550827 
L 435.396862 -60.455732 
L 435.999681 -58.246511 
L 436.602501 -58.697857 
L 437.205321 -58.406858 
L 437.80814 -55.84725 
L 438.41096 -56.013536 
L 439.01378 -53.961098 
L 439.616599 -54.901799 
L 440.219419 -55.828246 
L 440.822238 -57.966202 
L 441.425058 -59.348746 
L 442.027878 -59.405758 
L 442.630697 -60.018639 
L 443.233517 -53.619025 
L 443.836337 -60.132663 
L 444.439156 -60.478795 
L 445.041976 -57.495851 
L 445.644796 -57.239297 
L 446.247615 -55.272378 
L 446.850435 -53.918339 
L 447.453255 -55.65721 
L 448.056074 -57.951949 
L 448.658894 -59.334493 
L 449.261713 -56.669175 
L 449.864533 -58.764372 
L 450.467353 -58.655319 
L 451.070172 -57.438839 
L 451.672992 -57.923592 
L 452.275812 -57.747134 
L 452.878631 -57.856187 
L 453.481451 -57.699655 
L 454.084271 -57.290891 
L 454.68709 -56.71966 
L 455.28991 -57.41404 
L 455.892729 -56.695179 
L 456.495549 -54.745015 
L 457.098369 -53.020398 
L 457.701188 -54.003857 
L 458.304008 -56.426874 
L 458.906828 -57.491935 
L 459.509647 -57.15884 
L 460.112467 -57.169226 
L 460.715287 -57.460777 
L 461.318106 -57.454842 
L 461.920926 -57.644016 
L 462.523746 -57.4541 
L 463.126565 -57.299052 
L 463.729385 -55.999282 
L 464.332204 -56.426874 
L 464.935024 -55.628704 
L 465.537844 -52.692578 
L 466.140663 -55.557438 
L 466.743483 -56.465203 
L 467.346303 -56.170319 
L 467.949122 -56.75527 
L 468.551942 -57.270119 
L 469.154762 -56.851113 
L 469.757581 -55.357896 
L 470.360401 -52.949133 
L 470.96322 -51.994179 
L 471.56604 -52.350505 
L 472.16886 -52.535794 
L 472.771679 -56.897224 
L 473.374499 -57.267224 
L 473.977319 -53.319712 
L 474.580138 -51.01072 
L 475.182958 -56.284343 
L 475.785778 -55.101341 
L 476.388597 -54.659497 
L 476.991417 -56.935541 
L 477.594237 -57.133982 
L 478.197056 -55.602385 
L 478.799876 -56.732503 
L 479.402695 -56.313402 
L 480.005515 -56.33179 
L 480.608335 -56.132583 
L 481.211154 -56.190813 
L 481.813974 -56.80529 
L 482.416794 -56.099054 
L 483.019613 -57.019055 
L 483.622433 -57.250442 
L 484.225253 -57.555382 
L 484.828072 -57.96912 
L 485.430892 -57.722409 
L 486.033711 -57.638896 
L 486.636531 -58.204338 
L 487.239351 -58.122985 
L 487.84217 -55.642957 
L 488.44499 -52.664072 
L 489.04781 -53.676037 
L 489.650629 -56.084801 
L 490.253449 -56.848963 
L 490.856269 -56.650522 
L 491.459088 -56.136414 
L 492.061908 -56.91179 
L 492.664728 -55.543185 
L 493.267547 -56.298596 
L 493.267547 -56.601486 
L 493.267547 -56.601486 
L 492.664728 -56.291949 
L 492.061908 -56.954236 
L 491.459088 -60.232434 
L 490.856269 -58.422299 
L 490.253449 -58.764372 
L 489.650629 -57.406743 
L 489.04781 -56.822146 
L 488.44499 -57.208302 
L 487.84217 -57.45348 
L 487.239351 -58.307772 
L 486.636531 -62.441655 
L 486.033711 -61.187388 
L 485.430892 -63.31109 
L 484.828072 -64.052248 
L 484.225253 -59.762084 
L 483.622433 -58.536323 
L 483.019613 -60.018639 
L 482.416794 -56.875013 
L 481.813974 -57.823671 
L 481.211154 -60.047145 
L 480.608335 -61.629232 
L 480.005515 -63.31109 
L 479.402695 -66.888603 
L 478.799876 -65.491805 
L 478.197056 -63.211319 
L 477.594237 -64.009489 
L 476.991417 -58.878396 
L 476.388597 -57.710917 
L 475.785778 -57.041076 
L 475.182958 -56.930264 
L 474.580138 -57.678057 
L 473.977319 -57.280792 
L 473.374499 -59.049432 
L 472.771679 -57.23104 
L 472.16886 -57.297377 
L 471.56604 -57.261193 
L 470.96322 -56.61592 
L 470.360401 -56.970971 
L 469.757581 -56.889558 
L 469.154762 -58.978167 
L 468.551942 -60.047145 
L 467.949122 -61.629232 
L 467.346303 -56.184781 
L 466.743483 -56.711934 
L 466.140663 -56.255257 
L 465.537844 -56.410306 
L 464.935024 -56.739691 
L 464.332204 -56.634347 
L 463.729385 -57.19445 
L 463.126565 -57.324815 
L 462.523746 -61.38693 
L 461.920926 -61.700497 
L 461.318106 -57.951949 
L 460.715287 -58.678853 
L 460.112467 -60.132663 
L 459.509647 -62.669704 
L 458.906828 -58.080226 
L 458.304008 -57.929631 
L 457.701188 -56.80349 
L 457.098369 -56.27232 
L 456.495549 -56.665505 
L 455.892729 -57.453092 
L 455.28991 -60.702785 
L 454.68709 -59.562542 
L 454.084271 -63.96673 
L 453.481451 -60.745544 
L 452.878631 -57.894936 
L 452.275812 -61.201641 
L 451.672992 -58.008961 
L 451.070172 -58.751714 
L 450.467353 -59.291734 
L 449.864533 -59.246835 
L 449.261713 -59.23296 
L 448.658894 -59.50681 
L 448.056074 -59.700331 
L 447.453255 -60.072037 
L 446.850435 -60.216629 
L 446.247615 -60.310104 
L 445.644796 -60.119504 
L 445.041976 -61.008969 
L 444.439156 -60.660026 
L 443.836337 -60.434979 
L 443.233517 -60.596368 
L 442.630697 -60.57373 
L 442.027878 -60.806685 
L 441.425058 -60.968074 
L 440.822238 -60.421104 
L 440.219419 -60.937403 
L 439.616599 -61.42376 
L 439.01378 -60.687651 
L 438.41096 -61.956125 
L 437.80814 -61.109746 
L 437.205321 -61.100982 
L 436.602501 -61.353655 
L 435.999681 -60.799382 
L 435.396862 -60.862185 
L 434.794042 -63.567645 
L 434.191222 -64.517848 
L 433.588403 -64.624745 
L 432.985583 -62.593688 
L 432.382764 -63.330095 
L 431.779944 -62.032072 
L 431.177124 -62.474614 
L 430.574305 -62.457818 
L 429.971485 -62.220481 
L 429.368665 -62.908392 
L 428.765846 -63.131854 
L 428.163026 -64.523786 
L 427.560206 -63.593383 
L 426.957387 -63.497718 
L 426.354567 -63.331217 
L 425.751747 -63.515974 
L 425.148928 -63.535692 
L 424.546108 -64.096536 
L 423.943289 -64.214109 
L 423.340469 -64.43611 
L 422.737649 -64.173214 
L 422.13483 -65.191936 
L 421.53201 -64.584354 
L 420.92919 -64.562446 
L 420.326371 -65.576787 
L 419.723551 -65.516905 
L 419.120731 -65.792946 
L 418.517912 -65.77615 
L 417.915092 -66.70651 
L 417.312272 -66.73426 
L 416.709453 -66.787569 
L 416.106633 -66.219453 
L 415.503814 -65.939016 
L 414.900994 -66.447453 
L 414.298174 -65.217274 
L 413.695355 -64.911346 
L 413.092535 -66.170164 
L 412.489715 -64.885183 
L 411.886896 -67.355333 
L 411.284076 -68.669231 
L 410.681256 -69.256851 
L 410.078437 -67.695351 
L 409.475617 -67.162837 
L 408.872798 -67.77538 
L 408.269978 -68.065101 
L 407.667158 -68.845509 
L 407.064339 -69.169352 
L 406.461519 -67.248976 
L 405.858699 -66.571424 
L 405.25588 -67.607606 
L 404.65306 -68.701695 
L 404.05024 -68.408349 
L 403.447421 -70.727184 
L 402.844601 -73.447518 
L 402.241781 -70.217987 
L 401.638962 -71.599601 
L 401.036142 -70.628122 
L 400.433323 -70.238453 
L 399.830503 -70.57907 
L 399.227683 -71.171898 
L 398.624864 -70.583405 
L 398.022044 -71.89206 
L 397.419224 -72.050901 
L 396.816405 -71.635021 
L 396.213585 -72.761758 
L 395.610765 -73.80341 
L 395.007946 -74.482736 
L 394.405126 -72.89901 
L 393.802307 -73.980474 
L 393.199487 -76.535375 
L 392.596667 -77.193777 
L 391.993848 -78.185244 
L 391.391028 -78.336655 
L 390.788208 -77.275124 
L 390.185389 -77.962009 
L 389.582569 -76.258229 
L 388.979749 -75.358386 
L 388.37693 -75.733547 
L 387.77411 -75.717872 
L 387.17129 -75.311668 
L 386.568471 -75.396812 
L 385.965651 -75.991553 
L 385.362832 -75.44861 
L 384.760012 -76.593272 
L 384.157192 -78.895515 
L 383.554373 -77.291118 
L 382.951553 -78.360745 
L 382.348733 -78.56131 
L 381.745914 -77.875088 
L 381.143094 -77.020595 
L 380.540274 -77.288585 
L 379.937455 -76.984246 
L 379.334635 -77.768489 
L 378.731816 -76.74378 
L 378.128996 -78.634373 
L 377.526176 -80.784234 
L 376.923357 -79.74179 
L 376.320537 -80.906856 
L 375.717717 -82.662907 
L 375.114898 -83.875264 
L 374.512078 -83.029562 
z
" style="stroke: #ffffff; stroke-opacity: 0.8"/>
    </defs>
    <g clip-path="url(#p91d7477b5c)">
     <use xlink:href="#m112922e642" x="0" y="257.308906" style="fill: #1a1a1a; fill-opacity: 0.8; stroke: #ffffff; stroke-opacity: 0.8"/>
    </g>
   </g>
   <g id="PolyCollection_6">
    <defs>
     <path id="mcf455ac3c7" d="M 374.512078 -198.083767 
L 374.512078 -140.564609 
L 375.114898 -140.003701 
L 375.717717 -135.235264 
L 376.320537 -132.205274 
L 376.923357 -128.100573 
L 377.526176 -127.061571 
L 378.128996 -122.174255 
L 378.731816 -121.855762 
L 379.334635 -120.051067 
L 379.937455 -117.875397 
L 380.540274 -116.974039 
L 381.143094 -112.023767 
L 381.745914 -109.435662 
L 382.348733 -108.410123 
L 382.951553 -107.918395 
L 383.554373 -104.946393 
L 384.157192 -103.026513 
L 384.760012 -101.240607 
L 385.362832 -100.542226 
L 385.965651 -99.468232 
L 386.568471 -97.543527 
L 387.17129 -95.560749 
L 387.77411 -97.858577 
L 388.37693 -96.737927 
L 388.979749 -93.21054 
L 389.582569 -93.447446 
L 390.185389 -92.111778 
L 390.788208 -93.2353 
L 391.391028 -90.509094 
L 391.993848 -89.185977 
L 392.596667 -87.285382 
L 393.199487 -87.944349 
L 393.802307 -86.462185 
L 394.405126 -87.30169 
L 395.007946 -86.806508 
L 395.610765 -86.593949 
L 396.213585 -83.765424 
L 396.816405 -82.172586 
L 397.419224 -81.808832 
L 398.022044 -83.251342 
L 398.624864 -79.768293 
L 399.227683 -80.278738 
L 399.830503 -78.280446 
L 400.433323 -79.379288 
L 401.036142 -79.265341 
L 401.638962 -79.25342 
L 402.241781 -79.025838 
L 402.844601 -77.601388 
L 403.447421 -76.803931 
L 404.05024 -77.066722 
L 404.65306 -75.181847 
L 405.25588 -75.435261 
L 405.858699 -74.296431 
L 406.461519 -76.300697 
L 407.064339 -79.457454 
L 407.667158 -75.826191 
L 408.269978 -73.221755 
L 408.872798 -71.2625 
L 409.475617 -74.134216 
L 410.078437 -71.156086 
L 410.681256 -71.960157 
L 411.284076 -71.909671 
L 411.886896 -73.014945 
L 412.489715 -72.588897 
L 413.092535 -73.159888 
L 413.695355 -68.722964 
L 414.298174 -73.108247 
L 414.900994 -71.124899 
L 415.503814 -69.980635 
L 416.106633 -69.174121 
L 416.709453 -74.515335 
L 417.312272 -76.439495 
L 417.915092 -74.837725 
L 418.517912 -76.51076 
L 419.120731 -74.603568 
L 419.723551 -74.382985 
L 420.326371 -77.220018 
L 420.92919 -75.394272 
L 421.53201 -75.563951 
L 422.13483 -73.687301 
L 422.737649 -74.661259 
L 423.340469 -72.452038 
L 423.943289 -74.101318 
L 424.546108 -76.694014 
L 425.148928 -75.777747 
L 425.751747 -76.341081 
L 426.354567 -76.124544 
L 426.957387 -74.773247 
L 427.560206 -73.633004 
L 428.163026 -72.021054 
L 428.765846 -73.884129 
L 429.368665 -73.948607 
L 429.971485 -73.015373 
L 430.574305 -72.238243 
L 431.177124 -73.168084 
L 431.779944 -72.458825 
L 432.382764 -70.741674 
L 432.985583 -73.280072 
L 433.588403 -72.455432 
L 434.191222 -71.987118 
L 434.794042 -71.053883 
L 435.396862 -72.621717 
L 435.999681 -72.93915 
L 436.602501 -73.069596 
L 437.205321 -72.47457 
L 437.80814 -72.152294 
L 438.41096 -72.110439 
L 439.01378 -71.954184 
L 439.616599 -72.123693 
L 440.219419 -71.740728 
L 440.822238 -71.199807 
L 441.425058 -71.302655 
L 442.027878 -70.955469 
L 442.630697 -71.114968 
L 443.233517 -70.450925 
L 443.836337 -71.040309 
L 444.439156 -69.214563 
L 445.041976 -68.196489 
L 445.644796 -68.064139 
L 446.247615 -70.115394 
L 446.850435 -70.449826 
L 447.453255 -69.73801 
L 448.056074 -69.655697 
L 448.658894 -69.862875 
L 449.261713 -67.538134 
L 449.864533 -68.148978 
L 450.467353 -68.194292 
L 451.070172 -68.949758 
L 451.672992 -67.578857 
L 452.275812 -69.357835 
L 452.878631 -67.803653 
L 453.481451 -68.593998 
L 454.084271 -68.098725 
L 454.68709 -68.216614 
L 455.28991 -66.015604 
L 455.892729 -63.899028 
L 456.495549 -66.56268 
L 457.098369 -67.085856 
L 457.701188 -67.630657 
L 458.304008 -66.468138 
L 458.906828 -64.070065 
L 459.509647 -64.080754 
L 460.112467 -65.73767 
L 460.715287 -66.457448 
L 461.318106 -66.654759 
L 461.920926 -66.035318 
L 462.523746 -65.213871 
L 463.126565 -65.627209 
L 463.729385 -65.883764 
L 464.332204 -65.325891 
L 464.935024 -66.38262 
L 465.537844 -66.262028 
L 466.140663 -66.499201 
L 466.743483 -65.466862 
L 467.346303 -63.742245 
L 467.949122 -62.562806 
L 468.551942 -65.830315 
L 469.154762 -64.964443 
L 469.757581 -64.853982 
L 470.360401 -65.750435 
L 470.96322 -64.60099 
L 471.56604 -65.816292 
L 472.16886 -65.606684 
L 472.771679 -65.567028 
L 473.374499 -65.437439 
L 473.977319 -65.215792 
L 474.580138 -64.608117 
L 475.182958 -60.510369 
L 475.785778 -63.279021 
L 476.388597 -62.940512 
L 476.991417 -64.586737 
L 477.594237 -66.446759 
L 478.197056 -65.947298 
L 478.799876 -65.926762 
L 479.402695 -64.96088 
L 480.005515 -65.937213 
L 480.608335 -65.851694 
L 481.211154 -63.674543 
L 481.813974 -63.464311 
L 482.416794 -64.390758 
L 483.019613 -65.637899 
L 483.622433 -65.146169 
L 484.225253 -63.991673 
L 484.828072 -62.99396 
L 485.430892 -64.497656 
L 486.033711 -65.067777 
L 486.636531 -64.921684 
L 487.239351 -65.010765 
L 487.84217 -65.491805 
L 488.44499 -67.861373 
L 489.04781 -65.39916 
L 489.650629 -65.56307 
L 490.253449 -64.522599 
L 490.856269 -65.523874 
L 491.459088 -67.658267 
L 492.061908 -67.83643 
L 492.664728 -67.205733 
L 493.267547 -68.32816 
L 493.870367 -68.956882 
L 493.870367 -75.846637 
L 493.870367 -75.846637 
L 493.267547 -68.557972 
L 492.664728 -69.222357 
L 492.061908 -68.939058 
L 491.459088 -68.612618 
L 490.856269 -68.898074 
L 490.253449 -67.6901 
L 489.650629 -68.49973 
L 489.04781 -67.913 
L 488.44499 -68.399065 
L 487.84217 -67.353593 
L 487.239351 -67.473334 
L 486.636531 -67.276472 
L 486.033711 -67.130595 
L 485.430892 -66.449367 
L 484.828072 -66.666057 
L 484.225253 -67.153256 
L 483.622433 -67.204242 
L 483.019613 -66.753866 
L 482.416794 -66.500353 
L 481.813974 -66.261711 
L 481.211154 -66.776527 
L 480.608335 -66.301366 
L 480.005515 -66.122916 
L 479.402695 -66.224888 
L 478.799876 -67.715279 
L 478.197056 -66.917109 
L 477.594237 -66.801311 
L 476.991417 -65.757517 
L 476.388597 -65.787967 
L 475.785778 -64.912001 
L 475.182958 -65.096117 
L 474.580138 -65.014681 
L 473.977319 -66.621358 
L 473.374499 -67.145157 
L 472.771679 -71.107502 
L 472.16886 -68.078731 
L 471.56604 -67.476541 
L 470.96322 -66.646229 
L 470.360401 -66.232963 
L 469.757581 -66.214974 
L 469.154762 -66.011738 
L 468.551942 -65.907663 
L 467.949122 -66.008113 
L 467.346303 -65.517025 
L 466.743483 -66.317136 
L 466.140663 -67.971834 
L 465.537844 -66.485954 
L 464.935024 -66.871702 
L 464.332204 -65.666405 
L 463.729385 -66.503386 
L 463.126565 -66.732886 
L 462.523746 -66.991684 
L 461.920926 -66.36124 
L 461.318106 -67.426655 
L 460.715287 -66.534079 
L 460.112467 -67.226765 
L 459.509647 -67.846903 
L 458.906828 -66.631739 
L 458.304008 -66.997962 
L 457.701188 -68.965983 
L 457.098369 -69.10495 
L 456.495549 -68.937477 
L 455.892729 -67.309078 
L 455.28991 -68.258468 
L 454.68709 -68.659543 
L 454.084271 -69.507598 
L 453.481451 -69.315182 
L 452.878631 -72.564026 
L 452.275812 -70.263179 
L 451.672992 -68.523544 
L 451.070172 -71.42039 
L 450.467353 -68.508698 
L 449.864533 -68.769785 
L 449.261713 -69.324352 
L 448.658894 -70.952076 
L 448.056074 -71.321976 
L 447.453255 -69.743961 
L 446.850435 -70.629502 
L 446.247615 -70.846875 
L 445.644796 -70.628805 
L 445.041976 -70.183756 
L 444.439156 -71.181279 
L 443.836337 -71.389852 
L 443.233517 -72.24503 
L 442.630697 -71.195928 
L 442.027878 -71.16663 
L 441.425058 -71.51541 
L 440.822238 -71.310329 
L 440.219419 -74.881842 
L 439.616599 -73.218987 
L 439.01378 -73.94182 
L 438.41096 -73.43957 
L 437.80814 -74.664653 
L 437.205321 -74.125073 
L 436.602501 -73.517622 
L 435.999681 -73.039128 
L 435.396862 -73.865521 
L 434.794042 -73.569752 
L 434.191222 -73.888541 
L 433.588403 -73.875985 
L 432.985583 -74.173149 
L 432.382764 -74.75492 
L 431.779944 -75.191598 
L 431.177124 -74.662841 
L 430.574305 -74.388 
L 429.971485 -74.587719 
L 429.368665 -74.549917 
L 428.765846 -74.69494 
L 428.163026 -75.082583 
L 427.560206 -74.344412 
L 426.957387 -75.639304 
L 426.354567 -77.165721 
L 425.751747 -76.591915 
L 425.148928 -77.602948 
L 424.546108 -77.110834 
L 423.943289 -77.48473 
L 423.340469 -77.302593 
L 422.737649 -78.040764 
L 422.13483 -78.681337 
L 421.53201 -79.717113 
L 420.92919 -79.260739 
L 420.326371 -79.490301 
L 419.723551 -79.741856 
L 419.120731 -80.795502 
L 418.517912 -81.261498 
L 417.915092 -82.319268 
L 417.312272 -82.500718 
L 416.709453 -81.951557 
L 416.106633 -79.639541 
L 415.503814 -79.576177 
L 414.900994 -80.678795 
L 414.298174 -81.702022 
L 413.695355 -81.709913 
L 413.092535 -82.001623 
L 412.489715 -82.08235 
L 411.886896 -83.000711 
L 411.284076 -83.069631 
L 410.681256 -83.585468 
L 410.078437 -84.072589 
L 409.475617 -84.804138 
L 408.872798 -84.093792 
L 408.269978 -85.430988 
L 407.667158 -86.405275 
L 407.064339 -88.075278 
L 406.461519 -88.05813 
L 405.858699 -88.347511 
L 405.25588 -89.30736 
L 404.65306 -90.40161 
L 404.05024 -90.838585 
L 403.447421 -91.339615 
L 402.844601 -92.384355 
L 402.241781 -93.4414 
L 401.638962 -94.085567 
L 401.036142 -94.285238 
L 400.433323 -96.680525 
L 399.830503 -96.069738 
L 399.227683 -97.303162 
L 398.624864 -97.68599 
L 398.022044 -99.863734 
L 397.419224 -100.696697 
L 396.816405 -101.866237 
L 396.213585 -102.782543 
L 395.610765 -104.757682 
L 395.007946 -105.810352 
L 394.405126 -106.705427 
L 393.802307 -107.318965 
L 393.199487 -110.123793 
L 392.596667 -111.385977 
L 391.993848 -112.942041 
L 391.391028 -115.207195 
L 390.788208 -117.31131 
L 390.185389 -119.388271 
L 389.582569 -120.93034 
L 388.979749 -122.431653 
L 388.37693 -123.625253 
L 387.77411 -125.827268 
L 387.17129 -127.143085 
L 386.568471 -129.358608 
L 385.965651 -131.634255 
L 385.362832 -132.997406 
L 384.760012 -135.012799 
L 384.157192 -137.830291 
L 383.554373 -140.755095 
L 382.951553 -144.711773 
L 382.348733 -147.555955 
L 381.745914 -149.464097 
L 381.143094 -153.015507 
L 380.540274 -155.723992 
L 379.937455 -159.696739 
L 379.334635 -164.107537 
L 378.731816 -166.416822 
L 378.128996 -170.983195 
L 377.526176 -175.129884 
L 376.923357 -177.728722 
L 376.320537 -182.941522 
L 375.717717 -188.103885 
L 375.114898 -192.519729 
L 374.512078 -198.083767 
z
" style="stroke: #ffffff; stroke-opacity: 0.8"/>
    </defs>
    <g clip-path="url(#p91d7477b5c)">
     <use xlink:href="#mcf455ac3c7" x="0" y="257.308906" style="fill: #c44e52; fill-opacity: 0.8; stroke: #ffffff; stroke-opacity: 0.8"/>
    </g>
   </g>
   <g id="line2d_28">
    <path d="M 374.512078 189.234574 
L 375.114898 188.904296 
L 375.717717 190.046935 
L 376.320537 189.4945 
L 376.923357 190.818657 
L 377.526176 191.397955 
L 378.128996 193.091016 
L 378.731816 192.974348 
L 379.334635 192.326645 
L 379.937455 192.769003 
L 380.540274 194.698314 
L 381.143094 193.765415 
L 381.745914 191.76799 
L 382.348733 191.699125 
L 382.951553 192.778686 
L 383.554373 193.457163 
L 384.157192 192.22156 
L 384.760012 195.280718 
L 385.362832 194.614433 
L 385.965651 196.005823 
L 386.568471 194.520943 
L 387.17129 193.509709 
L 388.37693 194.471069 
L 388.979749 194.308517 
L 389.582569 192.497486 
L 390.185389 192.826368 
L 390.788208 194.313246 
L 391.993848 192.245463 
L 392.596667 193.594792 
L 393.199487 195.368717 
L 393.802307 196.103119 
L 394.405126 195.923359 
L 395.610765 197.49461 
L 396.213585 196.558148 
L 396.816405 196.884001 
L 397.419224 196.693405 
L 398.022044 197.36579 
L 398.624864 199.587333 
L 399.227683 199.942803 
L 399.830503 199.084154 
L 400.433323 198.744789 
L 401.036142 198.124559 
L 401.638962 198.411839 
L 402.241781 200.569224 
L 402.844601 197.053657 
L 403.447421 198.440916 
L 404.05024 200.413957 
L 404.65306 200.970983 
L 405.25588 201.087253 
L 405.858699 201.576453 
L 406.461519 201.746452 
L 407.064339 201.305305 
L 407.667158 201.609881 
L 408.269978 199.255748 
L 408.872798 200.060705 
L 409.475617 200.265211 
L 410.078437 199.814734 
L 410.681256 198.167931 
L 411.284076 197.448829 
L 411.886896 199.892986 
L 412.489715 200.77802 
L 413.092535 200.593317 
L 413.695355 200.607982 
L 414.298174 201.749145 
L 414.900994 201.415063 
L 415.503814 199.987786 
L 416.106633 196.642563 
L 416.709453 191.112801 
L 417.312272 192.122321 
L 417.915092 191.714544 
L 418.517912 194.222659 
L 419.120731 195.03678 
L 420.326371 196.92352 
L 420.92919 199.337034 
L 421.53201 196.469534 
L 422.13483 195.922253 
L 422.737649 197.987571 
L 423.340469 197.205828 
L 423.943289 197.489053 
L 424.546108 195.822628 
L 425.148928 196.53658 
L 425.751747 196.498929 
L 426.354567 196.864491 
L 426.957387 195.789466 
L 427.560206 194.369779 
L 428.163026 193.353655 
L 428.765846 194.740104 
L 429.368665 197.025423 
L 429.971485 196.989298 
L 431.177124 196.690007 
L 431.779944 196.777656 
L 432.382764 194.461322 
L 432.985583 194.958418 
L 433.588403 193.977941 
L 434.191222 194.11391 
L 434.794042 194.74967 
L 435.396862 196.649948 
L 435.999681 197.785959 
L 436.602501 197.28315 
L 437.205321 197.554986 
L 437.80814 198.830408 
L 438.41096 198.324076 
L 439.01378 199.984531 
L 439.616599 199.146127 
L 440.219419 198.926082 
L 441.425058 197.150496 
L 442.027878 197.202685 
L 442.630697 197.012722 
L 443.233517 200.20121 
L 443.836337 197.025085 
L 444.439156 196.739496 
L 445.041976 198.056496 
L 445.644796 198.629506 
L 446.850435 200.241422 
L 448.658894 197.888255 
L 449.261713 199.357839 
L 449.864533 198.303303 
L 450.467353 198.33538 
L 451.070172 199.213629 
L 451.672992 199.34263 
L 452.275812 197.834519 
L 452.878631 199.433344 
L 454.084271 196.680096 
L 454.68709 199.167805 
L 455.28991 198.250494 
L 455.892729 200.234771 
L 456.495549 201.603646 
L 457.098369 202.662547 
L 457.701188 201.905232 
L 458.304008 200.130654 
L 458.906828 199.522826 
L 459.509647 197.394634 
L 460.112467 198.657961 
L 460.715287 199.239091 
L 461.318106 199.605511 
L 461.920926 197.63665 
L 462.523746 197.888391 
L 463.126565 199.996973 
L 463.729385 200.71204 
L 464.332204 200.778296 
L 464.935024 201.124709 
L 465.537844 202.757465 
L 466.140663 201.402559 
L 466.743483 200.720338 
L 467.346303 201.131356 
L 467.949122 198.116655 
L 468.551942 198.650274 
L 469.154762 199.394266 
L 469.757581 201.185179 
L 470.360401 202.348855 
L 470.96322 203.003857 
L 471.56604 202.503057 
L 472.16886 202.392321 
L 472.771679 200.244774 
L 473.374499 199.150578 
L 473.977319 202.008654 
L 474.580138 202.964518 
L 475.182958 200.701602 
L 475.785778 201.237697 
L 476.388597 201.123699 
L 476.991417 199.401938 
L 477.594237 196.737171 
L 478.197056 197.902054 
L 478.799876 196.196752 
L 479.402695 195.707904 
L 480.005515 197.487466 
L 481.211154 199.189927 
L 482.416794 200.821873 
L 483.019613 198.790059 
L 483.622433 199.415524 
L 484.225253 198.650173 
L 484.828072 196.298222 
L 485.430892 196.792156 
L 486.033711 197.895764 
L 486.636531 196.98591 
L 487.239351 199.093528 
L 488.44499 202.372719 
L 489.04781 202.059814 
L 489.650629 200.563135 
L 490.253449 199.502239 
L 490.856269 199.772496 
L 491.459088 199.124482 
L 492.664728 201.391339 
L 493.267547 200.858865 
L 493.870367 202.252863 
L 493.870367 202.252863 
" clip-path="url(#p91d7477b5c)" style="fill: none; stroke: #1a1a1a; stroke-width: 1.5; stroke-linecap: round"/>
   </g>
   <g id="line2d_29">
    <path d="M 374.512078 87.984718 
L 375.114898 91.047191 
L 376.923357 104.394259 
L 377.526176 106.213179 
L 378.128996 110.730182 
L 379.334635 115.229604 
L 379.937455 118.522838 
L 380.540274 120.959891 
L 381.143094 124.789269 
L 381.745914 127.859027 
L 382.951553 130.993822 
L 383.554373 134.458162 
L 384.760012 139.182203 
L 385.965651 141.757662 
L 387.17129 145.956989 
L 387.77411 145.465984 
L 388.37693 147.127316 
L 388.979749 149.48781 
L 389.582569 150.120013 
L 390.185389 151.558882 
L 390.788208 152.035601 
L 391.391028 154.450762 
L 392.596667 157.973226 
L 393.199487 158.274835 
L 393.802307 160.418331 
L 394.405126 160.305348 
L 395.610765 161.633091 
L 396.213585 164.034923 
L 396.816405 165.289495 
L 397.419224 166.056141 
L 398.022044 165.751368 
L 398.624864 168.581765 
L 399.227683 168.517956 
L 399.830503 170.133814 
L 400.433323 169.279 
L 401.036142 170.533617 
L 401.638962 170.639413 
L 402.241781 171.075287 
L 402.844601 172.316034 
L 403.447421 173.237133 
L 404.05024 173.356253 
L 404.65306 174.517178 
L 405.25588 174.937596 
L 405.858699 175.986935 
L 406.461519 175.129493 
L 407.064339 173.54254 
L 407.667158 176.193173 
L 408.872798 179.63076 
L 409.475617 177.839729 
L 410.078437 179.694569 
L 410.681256 179.536094 
L 411.284076 179.819255 
L 411.886896 179.301078 
L 412.489715 179.973283 
L 413.092535 179.728151 
L 413.695355 182.092468 
L 414.298174 179.903772 
L 414.900994 181.407059 
L 415.503814 182.5305 
L 416.106633 182.902075 
L 416.709453 179.07546 
L 417.312272 177.8388 
L 417.915092 178.73041 
L 418.517912 178.422777 
L 419.120731 179.609371 
L 419.723551 180.246486 
L 420.326371 178.953747 
L 420.92919 179.981401 
L 421.53201 179.668374 
L 422.13483 181.124587 
L 422.737649 180.957895 
L 423.340469 182.43159 
L 424.546108 180.406483 
L 425.751747 180.842408 
L 426.354567 180.663774 
L 427.560206 183.320198 
L 428.163026 183.757088 
L 428.765846 183.019372 
L 429.368665 183.059644 
L 430.574305 183.995785 
L 431.177124 183.393444 
L 431.779944 183.483695 
L 432.382764 184.560609 
L 432.985583 183.582296 
L 433.588403 184.143198 
L 434.191222 184.371077 
L 434.794042 184.997089 
L 435.396862 184.065287 
L 435.999681 184.319767 
L 436.602501 184.015297 
L 437.80814 183.900433 
L 438.41096 184.533902 
L 439.01378 184.360904 
L 439.616599 184.637566 
L 440.219419 183.997621 
L 440.822238 186.053838 
L 441.425058 185.899873 
L 442.027878 186.247857 
L 443.233517 185.960929 
L 443.836337 186.093826 
L 445.041976 188.118784 
L 445.644796 187.962434 
L 446.247615 186.827772 
L 446.850435 186.769242 
L 447.453255 187.567921 
L 448.056074 186.82007 
L 448.658894 186.901431 
L 449.261713 188.877663 
L 449.864533 188.849524 
L 450.467353 188.957411 
L 451.070172 187.123832 
L 451.672992 189.257706 
L 452.275812 187.498399 
L 452.878631 187.125066 
L 453.481451 188.354316 
L 454.084271 188.505745 
L 454.68709 188.870828 
L 455.892729 191.704853 
L 456.495549 189.558828 
L 457.098369 189.213503 
L 457.701188 189.010587 
L 458.906828 191.958004 
L 460.112467 190.826689 
L 460.715287 190.813142 
L 461.318106 190.268199 
L 461.920926 191.110627 
L 462.523746 191.206129 
L 463.729385 191.115331 
L 464.332204 191.812758 
L 464.935024 190.681745 
L 465.537844 190.934915 
L 466.140663 190.073389 
L 467.346303 192.679271 
L 467.949122 193.023447 
L 468.551942 191.439917 
L 469.154762 191.820816 
L 469.757581 191.774429 
L 470.360401 191.317207 
L 470.96322 191.685296 
L 471.56604 190.66249 
L 472.16886 190.466199 
L 472.771679 188.971641 
L 473.374499 191.017608 
L 473.977319 191.390331 
L 474.580138 192.497507 
L 475.182958 194.505664 
L 475.785778 193.213395 
L 476.388597 192.944667 
L 476.991417 192.136779 
L 477.594237 190.684871 
L 478.197056 190.876703 
L 478.799876 190.487886 
L 479.402695 191.716023 
L 480.005515 191.278842 
L 480.608335 191.232376 
L 481.211154 192.083371 
L 481.813974 192.445896 
L 482.416794 191.863351 
L 483.019613 191.113024 
L 483.622433 191.133701 
L 484.828072 192.478897 
L 486.033711 191.20972 
L 486.636531 191.209829 
L 487.84217 190.886207 
L 488.44499 189.178687 
L 489.04781 190.652826 
L 489.650629 190.277506 
L 490.253449 191.202557 
L 491.459088 189.173464 
L 492.061908 188.921162 
L 492.664728 189.094861 
L 493.267547 188.865841 
L 493.870367 184.907147 
L 493.870367 184.907147 
" clip-path="url(#p91d7477b5c)" style="fill: none; stroke: #c44e52; stroke-width: 1.5; stroke-linecap: round"/>
   </g>
   <g id="line2d_30">
    <path d="M 376.320537 224.64 
L 376.320537 7.2 
" clip-path="url(#p91d7477b5c)" style="fill: none; stroke-dasharray: 5.55,2.4; stroke-dashoffset: 0; stroke: #1a1a1a; stroke-width: 1.5"/>
   </g>
   <g id="patch_13">
    <path d="M 368.544164 224.64 
L 368.544164 7.2 
" style="fill: none; stroke: #262626; stroke-width: 1.25; stroke-linejoin: miter; stroke-linecap: square"/>
   </g>
   <g id="patch_14">
    <path d="M 499.838281 224.64 
L 499.838281 7.2 
" style="fill: none; stroke: #262626; stroke-width: 1.25; stroke-linejoin: miter; stroke-linecap: square"/>
   </g>
   <g id="patch_15">
    <path d="M 368.544164 224.64 
L 499.838281 224.64 
" style="fill: none; stroke: #262626; stroke-width: 1.25; stroke-linejoin: miter; stroke-linecap: square"/>
   </g>
   <g id="patch_16">
    <path d="M 368.544164 7.2 
L 499.838281 7.2 
" style="fill: none; stroke: #262626; stroke-width: 1.25; stroke-linejoin: miter; stroke-linecap: square"/>
   </g>
  </g>
 </g>
 <defs>
  <clipPath id="pbd307414db">
   <rect x="53.438281" y="7.2" width="131.294118" height="217.44"/>
  </clipPath>
  <clipPath id="p7c789863b4">
   <rect x="210.991222" y="7.2" width="131.294118" height="217.44"/>
  </clipPath>
  <clipPath id="p91d7477b5c">
   <rect x="368.544164" y="7.2" width="131.294118" height="217.44"/>
  </clipPath>
 </defs>
</svg>
